<svg width="27" height="32" viewBox="0 0 27 32" fill="none" xmlns="http://www.w3.org/2000/svg">
<path d="M7.14552 3.64805C6.1468 3.89945 5.56171 4.89194 5.83863 5.86492L10.7043 22.9537C10.8484 23.4501 10.3072 23.8761 9.84072 23.6252L4.46169 20.7322C3.54858 20.2412 2.41097 20.5538 1.92076 21.4306C1.43055 22.3074 1.7733 23.4162 2.6864 23.9073C4.92957 25.1137 13.3021 31.1734 15.496 30.6213L23.3789 28.6376C23.942 28.4959 24.4008 28.1065 24.5774 27.5695C25.0939 26.0001 26.0062 22.5008 25.1682 19.314L25.1698 19.3135L23.1636 12.2665C22.8867 11.2936 21.8525 10.7087 20.8538 10.9599C19.8552 11.2111 19.2703 12.2037 19.5472 13.1766L19.2964 12.2958C19.0195 11.3228 17.9853 10.7377 16.9866 10.9891C15.988 11.2403 15.4029 12.2328 15.6798 13.2058L15.429 12.325C14.5461 9.02979 14.1772 7.65321 12.6482 2.36504C12.5279 1.94903 11.7816 0.803933 10.5267 1.14018C9.2718 1.47643 8.74147 2.29102 9.02168 3.33676C9.7553 6.50267 11.6048 12.5051 11.8126 13.235L9.45525 4.95488C9.17833 3.98191 8.14419 3.39682 7.14552 3.64805Z" fill="#FCFCFF" stroke="#001A72" stroke-width="2" stroke-linecap="round" stroke-linejoin="round"/>
</svg>
