<svg width="34" height="52" viewBox="0 0 34 52" fill="none" xmlns="http://www.w3.org/2000/svg">
<path fill-rule="evenodd" clip-rule="evenodd" d="M30.6572 16.8605C30.3591 14.9849 27.8099 13.5943 24.1596 13.0852C24.3782 9.27798 23.5577 6.4187 21.8385 5.75185C21.4433 5.59497 21.0054 5.56294 20.5453 5.64063L20.5442 5.63486C19.0128 5.89625 17.1877 7.36957 15.4725 9.67771C13.1352 8.0731 10.9524 7.29572 9.42087 7.55711L9.4218 7.56289C8.95399 7.64275 8.54724 7.81886 8.21454 8.1009C6.79821 9.30289 6.91059 12.2771 8.29967 15.7981C5.01179 17.4974 3.03791 19.654 3.33511 21.5238C3.53189 22.7619 4.70943 23.7886 6.53705 24.4899L6.56058 24.3937C6.6595 23.9896 6.81925 23.618 7.02713 23.2869C5.61034 22.7499 4.68474 22.0255 4.57145 21.3128C4.42745 20.4068 5.52024 19.0407 7.35411 17.8385C7.79912 17.5433 8.29235 17.2635 8.8041 16.9924C9.30134 18.0693 9.90616 19.1753 10.6158 20.293C10.5037 20.7418 10.4033 21.1851 10.3143 21.622C10.5054 21.639 10.6977 21.6722 10.8896 21.7227L11.48 21.8778C11.5028 21.8838 11.5254 21.89 11.5479 21.8964C11.5591 21.8405 11.5704 21.7846 11.5819 21.7286C11.637 21.8057 11.6924 21.8828 11.7483 21.9599C13.2242 22.4765 14.1846 23.9226 14.1676 25.4948C14.3493 25.4874 14.5321 25.4783 14.7159 25.4674C15.0489 25.8067 15.3832 26.1325 15.7181 26.4441L16.9007 25.7838C16.731 25.6312 16.5607 25.4739 16.3902 25.312C16.895 25.2496 17.4102 25.1795 17.928 25.0911C18.0324 25.0733 18.1364 25.0551 18.2401 25.0364L23.0782 22.3361C22.6679 22.4965 22.2456 22.6489 21.8127 22.792C22.0151 22.3012 22.2155 21.7986 22.3973 21.2874C22.5801 20.782 22.7452 20.2737 22.9002 19.7731C23.3026 20.4587 23.6648 21.1512 23.9834 21.8308L25.0969 21.2093C24.6165 20.1904 24.0404 19.1466 23.371 18.0923C23.6925 16.8044 23.9184 15.5626 24.0515 14.384C24.6313 14.4688 25.186 14.5757 25.7099 14.7056C27.8199 15.2405 29.2768 16.1655 29.4209 17.0715C29.5593 17.9785 28.4665 19.3446 26.6326 20.5468C26.5546 20.5985 26.4751 20.6499 26.3943 20.7007C27.0519 20.5828 27.7221 20.6614 28.3284 20.9132C29.9799 19.591 30.8631 18.1556 30.6572 16.8605ZM16.501 10.4268C18.0361 8.37165 19.5855 7.12351 20.7434 6.92275L20.7443 6.92851C21.0004 6.8848 21.2147 6.90156 21.403 6.97019C22.2319 7.29107 22.8329 8.94897 22.9271 11.1972C22.952 11.7502 22.9426 12.3386 22.9129 12.9424C21.7773 12.8517 20.5515 12.8416 19.2765 12.9169C18.3548 11.9776 17.421 11.1412 16.501 10.4268ZM9.62544 8.84405C10.7782 8.6473 12.6393 9.30768 14.7309 10.7349C14.086 11.7163 13.4596 12.8131 12.8886 14.0072C11.652 14.3605 10.4942 14.7775 9.44757 15.2465C9.22776 14.6913 9.0441 14.1477 8.89196 13.6224C8.27981 11.4625 8.33038 9.69342 9.00976 9.10918C9.16032 8.97679 9.37017 8.89356 9.62635 8.84983L9.62544 8.84405ZM22.7944 14.2489C22.7068 15.0285 22.5724 15.8397 22.4048 16.6567C22.1032 16.234 21.7903 15.8132 21.4552 15.3962C21.1257 14.9782 20.7811 14.5747 20.4386 14.1827C21.2487 14.1689 22.0356 14.1887 22.7944 14.2489ZM21.2206 20.8303C20.9101 21.6835 20.582 22.4983 20.2289 23.264C19.411 23.4805 18.5766 23.6646 17.7299 23.8089C16.8891 23.9525 16.0418 24.0557 15.2065 24.1271C14.6351 23.5193 14.0675 22.8633 13.5101 22.164C12.9668 21.4803 12.4604 20.7784 11.9867 20.065C12.2091 19.2327 12.4761 18.3929 12.7736 17.5656C13.0841 16.7124 13.4122 15.8976 13.7652 15.132C14.5832 14.9153 15.4176 14.7314 16.2642 14.5869C17.105 14.4434 17.9524 14.3403 18.7877 14.2688C19.3591 14.8767 19.9266 15.5326 20.484 16.2318C21.0275 16.9155 21.5338 17.6175 22.0074 18.3309C21.7796 19.1641 21.5183 20.003 21.2206 20.8303ZM15.755 11.4907C16.3608 11.9564 16.977 12.4855 17.5967 13.0732C17.0917 13.1357 16.5767 13.2058 16.0587 13.2942C15.5352 13.3836 15.0191 13.4835 14.5169 13.5989C14.9108 12.8381 15.3307 12.1322 15.755 11.4907ZM12.174 15.5933C11.9718 16.0842 11.7713 16.5867 11.5895 17.0979C11.4067 17.6033 11.2406 18.1058 11.0856 18.6065C10.662 17.8845 10.2829 17.1549 9.95201 16.4408C10.6531 16.1374 11.3969 15.8504 12.174 15.5933Z" fill="#99A3C7"/>
<path d="M28.5927 23.7696C28.1007 22.8867 27.0112 22.5842 26.1592 23.0939L11.1956 32.047C10.7616 32.3097 10.2204 31.9049 10.3397 31.3989L11.7158 25.565C11.9494 24.5746 11.364 23.5756 10.4084 23.3336C9.4527 23.0916 8.48863 23.6982 8.25504 24.6885C7.68117 27.1214 4.06352 36.5975 5.14411 38.537L9.02687 45.5058C9.30422 46.0036 9.78995 46.3396 10.3438 46.3706C11.9628 46.4616 15.5117 46.4376 18.3198 44.8337L18.3207 44.8352L24.4914 41.1434C25.3434 40.6337 25.6352 39.5048 25.1433 38.6219C24.6515 37.739 23.5621 37.4366 22.71 37.9463L23.4814 37.4848C24.3334 36.9752 24.6253 35.8462 24.1333 34.9633C23.6415 34.0804 22.552 33.7779 21.7 34.2875L22.4713 33.8261C23.3234 33.3164 23.6153 32.1875 23.1233 31.3046C22.6315 30.4217 21.542 30.1193 20.69 30.629L27.9405 26.2911C28.7926 25.7815 29.0845 24.6525 28.5927 23.7696Z" fill="white" stroke="#001A72" stroke-width="1.77127" stroke-linecap="round" stroke-linejoin="round"/>
</svg>
