<svg width="224" height="64" viewBox="0 0 224 64" fill="none" xmlns="http://www.w3.org/2000/svg">
<g clip-path="url(#clip0_308_2908)">
<path d="M77.494 35.5887C75.5868 34.5347 74.583 33.6815 74.583 32.4769C74.583 30.921 75.9381 29.9674 78.0963 29.9674C80.6058 29.9674 82.8142 31.0214 82.8142 31.0214L84.5709 25.651C84.5709 25.651 82.9648 24.3962 78.1967 24.3962C71.5716 24.3962 66.954 28.2107 66.954 33.5309C66.954 36.5423 69.1122 38.8511 71.9731 40.5074C74.2818 41.8123 75.0849 42.7659 75.0849 44.1211C75.0849 45.5766 73.9305 46.731 71.7723 46.731C68.5601 46.731 65.5487 45.0747 65.5487 45.0747L63.6917 50.4451C63.6917 50.4451 66.5023 52.3021 71.17 52.3021C77.9959 52.3021 82.8644 48.9394 82.8644 42.9165C82.9648 39.6039 80.4553 37.2952 77.494 35.5887Z" fill="white"/>
<path d="M104.697 24.296C101.334 24.296 98.7245 25.9021 96.6667 28.3113L96.5664 28.2611L99.4774 13.0032H91.8485L84.4705 51.8004H92.0492L94.5587 38.5501C95.5625 33.5311 98.1223 30.4695 100.531 30.4695C102.238 30.4695 102.89 31.6238 102.89 33.2801C102.89 34.3341 102.79 35.5889 102.539 36.6429L99.6782 51.8506H107.257L110.218 36.1912C110.569 34.5349 110.77 32.5775 110.77 31.2223C110.871 26.8557 108.662 24.296 104.697 24.296Z" fill="white"/>
<path d="M128.036 24.2959C118.901 24.2959 112.828 32.5271 112.828 41.712C112.828 47.5843 116.442 52.3524 123.268 52.3524C132.252 52.3524 138.275 44.3219 138.275 34.9363C138.325 29.4655 135.163 24.2959 128.036 24.2959ZM124.322 46.4801C121.712 46.4801 120.658 44.2717 120.658 41.5112C120.658 37.1447 122.916 30.0678 127.032 30.0678C129.742 30.0678 130.596 32.3766 130.596 34.6351C130.596 39.353 128.337 46.4801 124.322 46.4801Z" fill="white"/>
<path d="M157.749 24.2959C152.629 24.2959 149.718 28.813 149.718 28.813H149.618L150.069 24.7476H143.344C142.993 27.5081 142.39 31.6739 141.788 34.8359L136.518 62.541H144.097L146.205 51.2984H146.355C146.355 51.2984 147.911 52.3022 150.822 52.3022C159.756 52.3022 165.578 43.1675 165.578 33.9325C165.578 28.8632 163.32 24.2959 157.749 24.2959ZM150.521 46.6307C148.564 46.6307 147.409 45.5265 147.409 45.5265L148.664 38.4496C149.568 33.7317 152.027 30.5697 154.637 30.5697C156.946 30.5697 157.648 32.7279 157.648 34.7355C157.648 39.604 154.737 46.6307 150.521 46.6307Z" fill="white"/>
<path d="M176.419 13.4045C174.01 13.4045 172.053 15.3118 172.053 17.8213C172.053 20.0799 173.458 21.6358 175.616 21.6358H175.717C178.076 21.6358 180.134 20.0297 180.184 17.219C180.234 14.9604 178.728 13.4045 176.419 13.4045Z" fill="white"/>
<path d="M165.779 51.8003H173.408L178.578 24.8982H170.898L165.779 51.8003Z" fill="white"/>
<path d="M197.851 24.8481H192.581L192.832 23.5933C193.283 20.9834 194.789 18.6746 197.349 18.6746C198.704 18.6746 199.758 19.0762 199.758 19.0762L201.264 13.1537C201.264 13.1537 199.959 12.5012 197.148 12.5012C194.438 12.5012 191.778 13.2541 189.72 15.0107C187.11 17.2191 185.905 20.3811 185.303 23.5933L185.102 24.8481H181.589L180.485 30.5698H183.998L179.983 51.8003H187.562L191.577 30.5698H196.797L197.851 24.8481Z" fill="white"/>
<path d="M216.12 24.8982C216.12 24.8982 211.352 36.8435 209.244 43.3683H209.144C208.993 41.2603 207.287 24.8982 207.287 24.8982H199.306L203.874 49.5919C203.974 50.144 203.924 50.4953 203.723 50.8467C202.82 52.5531 201.364 54.2094 199.607 55.414C198.202 56.468 196.596 57.1205 195.341 57.5722L197.449 63.9966C199.005 63.6452 202.167 62.3905 204.877 59.8809C208.341 56.6186 211.553 51.6497 214.815 44.8238L224.1 24.8982H216.12Z" fill="white"/>
<path d="M37.5424 7.43191C37.5424 7.43191 36.8397 7.63267 35.6854 7.98401C35.4846 7.33153 35.1835 6.57867 34.7819 5.77563C33.477 3.2661 31.5195 1.91096 29.2108 1.91096C29.0602 1.91096 28.9096 1.91096 28.7089 1.96115C28.6587 1.86077 28.5583 1.81058 28.5081 1.7102C27.5043 0.60601 26.1994 0.104106 24.6435 0.154296C21.632 0.254677 18.6206 2.41287 16.2115 6.27753C14.505 8.98782 13.2 12.4008 12.8487 15.0609C9.38556 16.1149 6.97641 16.8677 6.92622 16.9179C5.16956 17.47 5.11937 17.5202 4.91861 19.1765C4.76803 20.4312 0.150513 55.7653 0.150513 55.7653L38.0945 62.3403V7.38172C37.7934 7.38172 37.6428 7.43191 37.5424 7.43191ZM28.7591 10.1422C26.7515 10.7445 24.5431 11.4471 22.3849 12.0996C22.9872 9.74067 24.1917 7.38172 25.5971 5.82582C26.1492 5.27372 26.902 4.62125 27.7553 4.21972C28.6085 6.02658 28.8093 8.48591 28.7591 10.1422ZM24.6435 2.21211C25.3461 2.21211 25.9484 2.36268 26.4503 2.66382C25.6473 3.06534 24.8442 3.71782 24.0914 4.47068C22.1841 6.52848 20.7286 9.74067 20.1263 12.8023C18.3195 13.3544 16.5126 13.9065 14.8563 14.4084C15.9605 9.5901 20.0259 2.31249 24.6435 2.21211ZM18.8214 29.8169C19.0221 33.029 27.5043 33.7317 28.0062 41.3105C28.3575 47.2831 24.8442 51.3486 19.775 51.6497C13.6517 52.0512 10.289 48.4375 10.289 48.4375L11.5939 42.9166C11.5939 42.9166 14.9567 45.4763 17.667 45.2755C19.4236 45.1751 20.0761 43.7196 20.0259 42.7158C19.775 38.4998 12.8487 38.7508 12.397 31.8245C11.9955 26.0024 15.8099 20.1301 24.2419 19.578C27.5043 19.3772 29.1606 20.1803 29.1606 20.1803L27.2534 27.4077C27.2534 27.4077 25.0952 26.4039 22.5355 26.6047C18.8214 26.8556 18.7712 29.2146 18.8214 29.8169ZM30.7667 9.53991C30.7667 8.0342 30.5659 5.87601 29.8633 4.06915C32.172 4.52087 33.2762 7.08058 33.7781 8.63648C32.8747 8.88744 31.8709 9.18858 30.7667 9.53991Z" fill="white"/>
<path d="M39.2489 62.2398L55.0087 58.3249C55.0087 58.3249 48.233 12.501 48.1828 12.1999C48.1326 11.8987 47.8817 11.698 47.6307 11.698C47.3798 11.698 42.963 11.5976 42.963 11.5976C42.963 11.5976 40.2527 8.9877 39.2489 7.98389V62.2398Z" fill="white"/>
</g>
<defs>
<clipPath id="clip0_308_2908">
<rect width="224" height="63.9928" fill="white" transform="translate(0 0.00366211)"/>
</clipPath>
</defs>
</svg>
