<svg width="224" height="64" viewBox="0 0 224 64" fill="none" xmlns="http://www.w3.org/2000/svg">
<path d="M77.3609 35.5158C75.4532 34.4615 74.4492 33.6081 74.4492 32.4033C74.4492 30.847 75.8046 29.8932 77.9633 29.8932C80.4734 29.8932 82.6823 30.9474 82.6823 30.9474L84.4393 25.5758C84.4393 25.5758 82.8329 24.3208 78.0637 24.3208C71.4371 24.3208 66.8185 28.1361 66.8185 33.4575C66.8185 36.4696 68.9772 38.7789 71.8387 40.4355C74.148 41.7408 74.9512 42.6946 74.9512 44.0501C74.9512 45.5059 73.7966 46.6606 71.6379 46.6606C68.425 46.6606 65.4129 45.0039 65.4129 45.0039L63.5554 50.3755C63.5554 50.3755 66.3667 52.2329 71.0355 52.2329C77.8629 52.2329 82.7325 48.8694 82.7325 42.8452C82.8329 39.5319 80.3228 37.2226 77.3609 35.5158Z" fill="#001A72"/>
<path d="M104.57 24.2204C101.207 24.2204 98.5961 25.8269 96.5379 28.2366L96.4375 28.1864L99.3492 12.925H91.7185L84.3389 51.731H91.9193L94.4294 38.4777C95.4334 33.4575 97.9937 30.3952 100.403 30.3952C102.11 30.3952 102.763 31.5499 102.763 33.2065C102.763 34.2608 102.662 35.5158 102.411 36.57L99.55 51.7812H107.13L110.092 36.1182C110.444 34.4616 110.645 32.5037 110.645 31.1483C110.745 26.7807 108.536 24.2204 104.57 24.2204Z" fill="#001A72"/>
<path d="M127.914 24.2205C118.777 24.2205 112.703 32.4535 112.703 41.6404C112.703 47.514 116.317 52.2832 123.145 52.2832C132.131 52.2832 138.155 44.2509 138.155 34.8632C138.205 29.3912 135.043 24.2205 127.914 24.2205ZM124.199 46.4096C121.589 46.4096 120.534 44.2007 120.534 41.4396C120.534 37.0721 122.793 29.9937 126.91 29.9937C129.621 29.9937 130.474 32.3029 130.474 34.562C130.474 39.281 128.215 46.4096 124.199 46.4096Z" fill="#001A72"/>
<path d="M157.633 24.2205C152.513 24.2205 149.601 28.7386 149.601 28.7386H149.501L149.952 24.6723H143.225C142.874 27.4334 142.272 31.6001 141.669 34.7628L136.398 62.4741H143.978L146.087 51.229H146.237C146.237 51.229 147.794 52.233 150.705 52.233C159.641 52.233 165.465 43.0963 165.465 33.8592C165.465 28.7888 163.206 24.2205 157.633 24.2205ZM150.404 46.5602C148.446 46.5602 147.292 45.4558 147.292 45.4558L148.547 38.3773C149.45 33.6584 151.91 30.4957 154.521 30.4957C156.83 30.4957 157.533 32.6543 157.533 34.6624C157.533 39.532 154.621 46.5602 150.404 46.5602Z" fill="#001A72"/>
<path d="M176.308 13.3267C173.899 13.3267 171.941 15.2343 171.941 17.7444C171.941 20.0035 173.347 21.5597 175.505 21.5597H175.606C177.965 21.5597 180.023 19.9533 180.074 17.142C180.124 14.8829 178.618 13.3267 176.308 13.3267Z" fill="#001A72"/>
<path d="M165.666 51.7309H173.296L178.467 24.8228H170.786L165.666 51.7309Z" fill="#001A72"/>
<path d="M197.744 24.7727H192.473L192.724 23.5177C193.176 20.9072 194.682 18.5979 197.242 18.5979C198.598 18.5979 199.652 18.9995 199.652 18.9995L201.158 13.0757C201.158 13.0757 199.853 12.4231 197.042 12.4231C194.331 12.4231 191.67 13.1761 189.612 14.9332C187.001 17.1421 185.796 20.3048 185.194 23.5177L184.993 24.7727H181.479L180.375 30.4957H183.889L179.873 51.731H187.453L191.469 30.4957H196.69L197.744 24.7727Z" fill="#001A72"/>
<path d="M216.018 24.8228C216.018 24.8228 211.249 36.7708 209.14 43.297H209.04C208.889 41.1885 207.182 24.8228 207.182 24.8228H199.2L203.769 49.522C203.869 50.0742 203.819 50.4256 203.618 50.777C202.714 52.4839 201.259 54.1405 199.502 55.3454C198.096 56.3996 196.489 57.0522 195.234 57.5041L197.343 63.9299C198.899 63.5785 202.062 62.3234 204.773 59.8133C208.237 56.5502 211.45 51.5803 214.713 44.7528L224 24.8228H216.018Z" fill="#001A72"/>
<path d="M37.4003 7.35273C37.4003 7.35273 36.6974 7.55354 35.5428 7.90495C35.342 7.25233 35.0408 6.4993 34.6392 5.69608C33.3339 3.18599 31.3761 1.83055 29.0668 1.83055C28.9162 1.83055 28.7656 1.83055 28.5648 1.88075C28.5146 1.78034 28.4142 1.73014 28.364 1.62974C27.3599 0.525302 26.0547 0.0232848 24.4984 0.0734865C21.4863 0.17389 18.4742 2.33256 16.0645 6.19809C14.3577 8.90898 13.0524 12.3227 12.701 14.9834C9.23711 16.0376 6.82743 16.7907 6.77723 16.8409C5.02017 17.3931 4.96997 17.4433 4.76916 19.0999C4.61856 20.355 0 55.697 0 55.697L37.9525 62.2734V7.30253C37.6513 7.30253 37.5007 7.35273 37.4003 7.35273ZM28.615 10.0636C26.6069 10.666 24.398 11.3689 22.2393 12.0215C22.8418 9.66201 24.0466 7.30253 25.4523 5.74628C26.0045 5.19406 26.7575 4.54144 27.6109 4.13982C28.4644 5.94708 28.6652 8.40697 28.615 10.0636ZM24.4984 2.13176C25.2012 2.13176 25.8037 2.28236 26.3057 2.58357C25.5025 2.98518 24.6992 3.63781 23.9462 4.39083C22.0385 6.4491 20.5827 9.66201 19.9803 12.7243C18.173 13.2765 16.3658 13.8287 14.7091 14.3308C15.8135 9.5114 19.8799 2.23216 24.4984 2.13176ZM18.675 29.7427C18.8758 32.9556 27.3599 33.6584 27.8619 41.2389C28.2133 47.2129 24.6992 51.2792 19.6289 51.5804C13.5043 51.982 10.1407 48.3675 10.1407 48.3675L11.446 42.8453C11.446 42.8453 14.8095 45.4056 17.5204 45.2048C19.2774 45.1044 19.9301 43.6486 19.8799 42.6445C19.6289 38.4276 12.701 38.6786 12.2492 31.7508C11.8476 25.9274 15.6629 20.0538 24.0968 19.5015C27.3599 19.3007 29.0166 20.104 29.0166 20.104L27.1089 27.333C27.1089 27.333 24.9502 26.329 22.39 26.5298C18.675 26.7808 18.6248 29.1403 18.675 29.7427ZM30.623 9.4612C30.623 7.95515 30.4222 5.79648 29.7194 3.98922C32.0287 4.44103 33.1331 7.00132 33.6351 8.55757C32.7315 8.80858 31.7275 9.10979 30.623 9.4612Z" fill="#001A72"/>
<path d="M39.1069 62.1731L54.8703 58.2573C54.8703 58.2573 48.093 12.4232 48.0428 12.122C47.9926 11.8208 47.7416 11.62 47.4906 11.62C47.2396 11.62 42.8219 11.5196 42.8219 11.5196C42.8219 11.5196 40.111 8.90906 39.1069 7.90503V62.1731Z" fill="#001A72"/>
</svg>
