<svg width="809" height="202" viewBox="0 0 809 202" fill="none" xmlns="http://www.w3.org/2000/svg">
<path d="M10.1691 92.9219V23.8113H37.221C41.236 23.8113 44.856 24.7657 48.0812 26.6745C51.3722 28.5174 53.9721 31.0515 55.8808 34.2766C57.7896 37.5018 58.744 41.1548 58.744 45.2356C58.744 49.0531 57.8225 52.5087 55.9796 55.6022C54.1366 58.6957 51.6355 61.1639 48.4761 63.0069C45.3168 64.784 41.7625 65.6726 37.8133 65.6726H17.87V92.9219H10.1691ZM52.3266 92.9219L34.9502 62.5132L42.3549 59.9463L61.5084 92.9219H52.3266ZM17.87 58.1691H38.5045C40.9398 58.1691 43.0789 57.6097 44.9219 56.4907C46.7648 55.3718 48.2128 53.858 49.266 51.9492C50.3191 49.9746 50.8456 47.7367 50.8456 45.2356C50.8456 42.537 50.2203 40.1346 48.9698 38.0283C47.7192 35.9221 45.975 34.2766 43.7371 33.0919C41.5651 31.9071 39.0639 31.3148 36.2337 31.3148H17.87V58.1691ZM85.2189 92.9219V23.8113H127.08V31.3148H92.9198V85.4184H126.883V92.9219H85.2189ZM88.7731 61.131V53.6276H121.551V61.131H88.7731ZM146.494 92.9219L172.953 23.8113H181.74L208.002 92.9219H199.61L182.727 48.0987C182.266 46.8482 181.74 45.4001 181.148 43.7546C180.621 42.0433 180.029 40.2991 179.37 38.522C178.778 36.679 178.186 34.9019 177.593 33.1906C177.067 31.4793 176.573 29.9654 176.112 28.6491H178.087C177.56 30.2945 177.001 31.9729 176.409 33.6843C175.882 35.3297 175.323 37.0081 174.73 38.7195C174.138 40.3649 173.545 42.0104 172.953 43.6559C172.361 45.3014 171.768 46.9469 171.176 48.5924L154.392 92.9219H146.494ZM157.749 73.8671L160.612 66.3637H193.291L196.451 73.8671H157.749ZM257.201 93.9092C252.264 93.9092 247.723 93.0535 243.576 91.3422C239.43 89.5651 235.842 87.0968 232.815 83.9375C229.787 80.7123 227.417 76.9277 225.706 72.5836C224.061 68.2395 223.238 63.5005 223.238 58.3666C223.238 53.2985 224.061 48.6582 225.706 44.4458C227.417 40.1675 229.82 36.4487 232.913 33.2893C236.007 30.0642 239.594 27.5959 243.675 25.8846C247.756 24.1733 252.231 23.3177 257.102 23.3177C260.327 23.3177 263.519 23.8442 266.679 24.8973C269.838 25.8846 272.734 27.2668 275.367 29.044C278.066 30.8211 280.271 32.8615 281.982 35.1652L276.65 40.694C275.005 38.7195 273.096 37.0081 270.924 35.5601C268.818 34.1121 266.58 32.9931 264.211 32.2033C261.841 31.4135 259.472 31.0186 257.102 31.0186C253.416 31.0186 249.961 31.7097 246.735 33.0919C243.576 34.4083 240.845 36.2841 238.541 38.7195C236.237 41.1548 234.427 44.0508 233.111 47.4076C231.86 50.7644 231.235 54.4174 231.235 58.3666C231.235 62.4474 231.86 66.1991 233.111 69.6217C234.427 73.0444 236.27 76.0062 238.64 78.5074C241.075 80.9427 243.905 82.8515 247.13 84.2337C250.421 85.5501 254.074 86.2083 258.089 86.2083C260.459 86.2083 262.828 85.8792 265.198 85.221C267.567 84.497 269.739 83.5097 271.714 82.2591C273.689 81.0085 275.367 79.5934 276.749 78.0137L280.698 84.4311C279.185 86.2741 277.144 87.9196 274.577 89.3676C272.076 90.7498 269.312 91.8688 266.284 92.7244C263.256 93.5143 260.228 93.9092 257.201 93.9092ZM317.7 92.9219V31.3148H297.954V23.8113H345.937V31.3148H325.401V92.9219H317.7ZM406.379 92.9219V23.8113H413.388L458.606 83.6413L457.224 85.4184C457.027 84.3653 456.862 82.7857 456.731 80.6794C456.665 78.5732 456.566 76.2037 456.434 73.5709C456.369 70.8723 456.303 68.075 456.237 65.1789C456.171 62.2829 456.105 59.4526 456.039 56.6882C456.039 53.9238 456.039 51.4226 456.039 49.1848V23.8113H463.74V92.9219H456.533L411.512 33.8817L412.697 31.8084C412.895 34.4412 413.059 37.0411 413.191 39.608C413.388 42.175 413.52 44.6432 413.586 47.0127C413.717 49.3822 413.816 51.5543 413.882 53.5289C413.948 55.5034 413.981 57.1818 413.981 58.5641C414.047 59.9463 414.079 60.9336 414.079 61.5259V92.9219H406.379ZM486.261 92.9219L512.721 23.8113H521.508L547.77 92.9219H539.378L522.495 48.0987C522.034 46.8482 521.508 45.4001 520.915 43.7546C520.389 42.0433 519.796 40.2991 519.138 38.522C518.546 36.679 517.954 34.9019 517.361 33.1906C516.835 31.4793 516.341 29.9654 515.88 28.6491H517.855C517.328 30.2945 516.769 31.9729 516.176 33.6843C515.65 35.3297 515.09 37.0081 514.498 38.7195C513.906 40.3649 513.313 42.0104 512.721 43.6559C512.128 45.3014 511.536 46.9469 510.944 48.5924L494.16 92.9219H486.261ZM497.517 73.8671L500.38 66.3637H533.059L536.218 73.8671H497.517ZM577.887 92.9219V31.3148H558.141V23.8113H606.123V31.3148H585.588V92.9219H577.887ZM625.763 92.9219V85.6159H636.919V31.1173H625.763V23.8113H655.777V31.1173H644.62V85.6159H655.777V92.9219H625.763ZM701.818 92.9219L675.062 23.8113H683.75L700.929 68.8319C701.719 70.8723 702.41 72.6824 703.002 74.262C703.595 75.8417 704.121 77.3555 704.582 78.8036C705.109 80.1858 705.602 81.568 706.063 82.9502C706.524 84.3324 707.017 85.8463 707.544 87.4918L704.977 87.5905C705.635 85.3526 706.26 83.2793 706.853 81.3705C707.511 79.4618 708.169 77.5201 708.827 75.5455C709.551 73.5051 710.44 71.1356 711.493 68.437L728.573 23.8113H737.261L709.716 92.9219H701.818ZM759.741 92.9219V23.8113H801.602V31.3148H767.442V85.4184H801.405V92.9219H759.741ZM763.295 61.131V53.6276H796.073V61.131H763.295Z" fill="#001A72"/>
<path d="M38.822 183.862C33.558 183.862 28.7953 183.016 24.534 181.324C20.2727 179.632 16.6067 177.251 13.536 174.18C10.4653 171.109 8.11533 167.506 6.486 163.37C4.85667 159.171 4.042 154.628 4.042 149.74C4.042 144.852 4.888 140.371 6.58 136.298C8.33467 132.162 10.81 128.559 14.006 125.488C17.202 122.417 20.962 120.036 25.286 118.344C29.6727 116.652 34.4353 115.806 39.574 115.806C43.2087 115.806 46.624 116.276 49.82 117.216C53.0787 118.156 56.024 119.441 58.656 121.07C61.288 122.699 63.5127 124.579 65.33 126.71L55.648 136.956C54.0813 135.452 52.452 134.199 50.76 133.196C49.1307 132.193 47.376 131.41 45.496 130.846C43.616 130.219 41.6107 129.906 39.48 129.906C36.7227 129.906 34.1847 130.407 31.866 131.41C29.61 132.413 27.6047 133.823 25.85 135.64C24.158 137.395 22.842 139.494 21.902 141.938C20.962 144.319 20.492 146.92 20.492 149.74C20.492 152.56 20.9933 155.192 21.996 157.636C22.9987 160.08 24.3773 162.211 26.132 164.028C27.8867 165.783 29.9547 167.193 32.336 168.258C34.78 169.261 37.3807 169.762 40.138 169.762C42.0807 169.762 43.898 169.449 45.59 168.822C47.3447 168.195 48.8487 167.349 50.102 166.284C51.3553 165.219 52.358 163.965 53.11 162.524C53.862 161.02 54.238 159.422 54.238 157.73V155.286L56.306 158.482H38.164V145.98H69.09C69.2153 146.669 69.3093 147.609 69.372 148.8C69.4347 149.991 69.466 151.15 69.466 152.278C69.5287 153.406 69.56 154.252 69.56 154.816C69.56 159.077 68.7767 162.994 67.21 166.566C65.706 170.075 63.5753 173.115 60.818 175.684C58.0607 178.253 54.802 180.259 51.042 181.7C47.282 183.141 43.2087 183.862 38.822 183.862ZM105.865 183.862C100.351 183.862 95.5566 182.765 91.4833 180.572C87.41 178.316 84.2453 175.277 81.9893 171.454C79.7333 167.569 78.6053 163.151 78.6053 158.2C78.6053 154.377 79.232 150.868 80.4853 147.672C81.7386 144.476 83.4933 141.719 85.7493 139.4C88.0053 137.019 90.6686 135.201 93.7393 133.948C96.8726 132.632 100.288 131.974 103.985 131.974C107.495 131.974 110.691 132.601 113.573 133.854C116.519 135.107 119.057 136.862 121.187 139.118C123.318 141.374 124.947 144.037 126.075 147.108C127.203 150.179 127.705 153.531 127.579 157.166L127.485 161.208H87.7233L85.5613 152.748H115.265L113.667 154.534V152.654C113.542 151.087 113.041 149.709 112.163 148.518C111.349 147.265 110.252 146.293 108.873 145.604C107.495 144.915 105.928 144.57 104.173 144.57C101.729 144.57 99.63 145.071 97.8753 146.074C96.1833 147.014 94.8986 148.424 94.0213 150.304C93.144 152.121 92.7053 154.377 92.7053 157.072C92.7053 159.829 93.2693 162.242 94.3973 164.31C95.588 166.315 97.28 167.882 99.4733 169.01C101.729 170.138 104.393 170.702 107.463 170.702C109.594 170.702 111.474 170.389 113.103 169.762C114.795 169.135 116.613 168.07 118.555 166.566L125.605 176.53C123.663 178.222 121.595 179.601 119.401 180.666C117.208 181.731 114.952 182.515 112.633 183.016C110.377 183.58 108.121 183.862 105.865 183.862ZM155.867 183.862C150.979 183.862 146.655 183.079 142.895 181.512C139.198 179.945 136.253 177.846 134.059 175.214L143.177 167.318C145.12 169.261 147.313 170.702 149.757 171.642C152.201 172.519 154.52 172.958 156.713 172.958C157.591 172.958 158.374 172.864 159.063 172.676C159.753 172.488 160.317 172.237 160.755 171.924C161.257 171.548 161.633 171.141 161.883 170.702C162.134 170.201 162.259 169.637 162.259 169.01C162.259 167.757 161.695 166.785 160.567 166.096C160.003 165.783 159.063 165.407 157.747 164.968C156.431 164.529 154.739 164.028 152.671 163.464C149.726 162.712 147.157 161.835 144.963 160.832C142.833 159.767 141.078 158.545 139.699 157.166C138.446 155.85 137.475 154.409 136.785 152.842C136.096 151.213 135.751 149.395 135.751 147.39C135.751 145.071 136.284 142.972 137.349 141.092C138.477 139.212 139.95 137.583 141.767 136.204C143.647 134.825 145.778 133.791 148.159 133.102C150.603 132.35 153.11 131.974 155.679 131.974C158.437 131.974 161.069 132.287 163.575 132.914C166.082 133.541 168.401 134.418 170.531 135.546C172.725 136.674 174.667 138.021 176.359 139.588L168.463 148.424C167.335 147.359 166.051 146.419 164.609 145.604C163.231 144.727 161.789 144.037 160.285 143.536C158.781 143.035 157.403 142.784 156.149 142.784C155.209 142.784 154.363 142.878 153.611 143.066C152.922 143.191 152.327 143.442 151.825 143.818C151.324 144.131 150.948 144.539 150.697 145.04C150.447 145.479 150.321 146.011 150.321 146.638C150.321 147.265 150.478 147.86 150.791 148.424C151.167 148.988 151.669 149.458 152.295 149.834C152.922 150.21 153.925 150.649 155.303 151.15C156.682 151.589 158.562 152.153 160.943 152.842C163.889 153.657 166.427 154.565 168.557 155.568C170.688 156.571 172.38 157.761 173.633 159.14C174.636 160.205 175.388 161.459 175.889 162.9C176.391 164.279 176.641 165.783 176.641 167.412C176.641 170.608 175.733 173.459 173.915 175.966C172.161 178.41 169.717 180.353 166.583 181.794C163.45 183.173 159.878 183.862 155.867 183.862ZM191.598 182.922V120.412H206.638V182.922H191.598ZM182.762 146.168V133.008H216.32V146.168H182.762ZM243.81 183.956C240.112 183.956 236.948 183.173 234.316 181.606C231.746 179.977 229.741 177.658 228.3 174.65C226.921 171.642 226.232 168.039 226.232 163.84V133.008H241.366V161.772C241.366 163.777 241.679 165.501 242.306 166.942C242.932 168.383 243.872 169.511 245.126 170.326C246.379 171.078 247.883 171.454 249.638 171.454C250.954 171.454 252.144 171.235 253.21 170.796C254.338 170.357 255.278 169.762 256.03 169.01C256.844 168.195 257.471 167.287 257.91 166.284C258.348 165.219 258.568 164.059 258.568 162.806V133.008H273.702V182.922H259.508L258.85 172.676L261.67 171.548C260.918 173.929 259.664 176.06 257.91 177.94C256.155 179.757 254.056 181.23 251.612 182.358C249.168 183.423 246.567 183.956 243.81 183.956ZM288.986 182.922V133.008H303.274L303.932 149.27L301.112 146.168C301.864 143.473 303.086 141.061 304.778 138.93C306.533 136.799 308.569 135.107 310.888 133.854C313.207 132.601 315.682 131.974 318.314 131.974C319.442 131.974 320.476 132.068 321.416 132.256C322.419 132.444 323.327 132.663 324.142 132.914L320.006 149.552C319.317 149.113 318.377 148.769 317.186 148.518C316.058 148.205 314.867 148.048 313.614 148.048C312.235 148.048 310.951 148.299 309.76 148.8C308.569 149.239 307.567 149.897 306.752 150.774C305.937 151.651 305.279 152.685 304.778 153.876C304.339 155.067 304.12 156.414 304.12 157.918V182.922H288.986ZM355.314 183.862C349.799 183.862 345.005 182.765 340.932 180.572C336.859 178.316 333.694 175.277 331.438 171.454C329.182 167.569 328.054 163.151 328.054 158.2C328.054 154.377 328.681 150.868 329.934 147.672C331.187 144.476 332.942 141.719 335.198 139.4C337.454 137.019 340.117 135.201 343.188 133.948C346.321 132.632 349.737 131.974 353.434 131.974C356.943 131.974 360.139 132.601 363.022 133.854C365.967 135.107 368.505 136.862 370.636 139.118C372.767 141.374 374.396 144.037 375.524 147.108C376.652 150.179 377.153 153.531 377.028 157.166L376.934 161.208H337.172L335.01 152.748H364.714L363.116 154.534V152.654C362.991 151.087 362.489 149.709 361.612 148.518C360.797 147.265 359.701 146.293 358.322 145.604C356.943 144.915 355.377 144.57 353.622 144.57C351.178 144.57 349.079 145.071 347.324 146.074C345.632 147.014 344.347 148.424 343.47 150.304C342.593 152.121 342.154 154.377 342.154 157.072C342.154 159.829 342.718 162.242 343.846 164.31C345.037 166.315 346.729 167.882 348.922 169.01C351.178 170.138 353.841 170.702 356.912 170.702C359.043 170.702 360.923 170.389 362.552 169.762C364.244 169.135 366.061 168.07 368.004 166.566L375.054 176.53C373.111 178.222 371.043 179.601 368.85 180.666C366.657 181.731 364.401 182.515 362.082 183.016C359.826 183.58 357.57 183.862 355.314 183.862ZM462.874 182.922V117.122H478.854V182.922H462.874ZM422.078 182.922V117.122H438.058V182.922H422.078ZM428.282 157.26L428.376 142.972H471.334V157.26H428.282ZM514.038 183.768C509.839 183.768 506.079 182.671 502.758 180.478C499.499 178.222 496.898 175.151 494.956 171.266C493.013 167.318 492.042 162.869 492.042 157.918C492.042 152.842 493.013 148.361 494.956 144.476C496.898 140.591 499.562 137.551 502.946 135.358C506.33 133.102 510.184 131.974 514.508 131.974C516.889 131.974 519.051 132.319 520.994 133.008C522.999 133.697 524.754 134.669 526.258 135.922C527.762 137.113 529.046 138.523 530.112 140.152C531.177 141.719 531.96 143.411 532.462 145.228L529.36 144.852V133.008H544.306V182.922H529.078V170.89L532.462 170.796C531.96 172.551 531.146 174.211 530.018 175.778C528.89 177.345 527.511 178.723 525.882 179.914C524.252 181.105 522.435 182.045 520.43 182.734C518.424 183.423 516.294 183.768 514.038 183.768ZM518.174 171.078C520.492 171.078 522.498 170.545 524.19 169.48C525.882 168.415 527.198 166.911 528.138 164.968C529.078 162.963 529.548 160.613 529.548 157.918C529.548 155.223 529.078 152.905 528.138 150.962C527.198 148.957 525.882 147.421 524.19 146.356C522.498 145.228 520.492 144.664 518.174 144.664C515.918 144.664 513.944 145.228 512.252 146.356C510.622 147.421 509.338 148.957 508.398 150.962C507.458 152.905 506.988 155.223 506.988 157.918C506.988 160.613 507.458 162.963 508.398 164.968C509.338 166.911 510.622 168.415 512.252 169.48C513.944 170.545 515.918 171.078 518.174 171.078ZM559.456 182.922V133.008H573.744L574.214 143.16L571.206 144.288C571.896 142.032 573.118 139.995 574.872 138.178C576.69 136.298 578.852 134.794 581.358 133.666C583.865 132.538 586.497 131.974 589.254 131.974C593.014 131.974 596.179 132.757 598.748 134.324C601.318 135.828 603.26 138.115 604.576 141.186C605.892 144.194 606.55 147.891 606.55 152.278V182.922H591.416V153.5C591.416 151.495 591.134 149.834 590.57 148.518C590.006 147.202 589.129 146.231 587.938 145.604C586.81 144.915 585.4 144.601 583.708 144.664C582.392 144.664 581.17 144.883 580.042 145.322C578.914 145.698 577.943 146.293 577.128 147.108C576.314 147.86 575.656 148.737 575.154 149.74C574.716 150.743 574.496 151.839 574.496 153.03V182.922H567.07C565.316 182.922 563.812 182.922 562.558 182.922C561.305 182.922 560.271 182.922 559.456 182.922ZM639.898 183.956C635.574 183.956 631.72 182.859 628.336 180.666C625.015 178.41 622.383 175.339 620.44 171.454C618.498 167.506 617.526 163.025 617.526 158.012C617.526 152.999 618.498 148.549 620.44 144.664C622.383 140.716 625.046 137.614 628.43 135.358C631.814 133.102 635.7 131.974 640.086 131.974C642.342 131.974 644.504 132.319 646.572 133.008C648.64 133.697 650.52 134.637 652.212 135.828C653.904 137.019 655.283 138.397 656.348 139.964C657.414 141.468 658.04 143.035 658.228 144.664L654.656 145.51V113.362H669.79V182.922H655.784L654.938 171.548L657.946 172.018C657.758 173.585 657.132 175.089 656.066 176.53C655.064 177.971 653.748 179.256 652.118 180.384C650.489 181.449 648.609 182.295 646.478 182.922C644.41 183.611 642.217 183.956 639.898 183.956ZM643.752 171.454C646.071 171.454 648.076 170.89 649.768 169.762C651.46 168.634 652.745 167.067 653.622 165.062C654.562 163.057 655.032 160.707 655.032 158.012C655.032 155.255 654.562 152.873 653.622 150.868C652.745 148.863 651.46 147.296 649.768 146.168C648.076 145.04 646.071 144.476 643.752 144.476C641.434 144.476 639.428 145.04 637.736 146.168C636.107 147.296 634.822 148.863 633.882 150.868C632.942 152.873 632.472 155.255 632.472 158.012C632.472 160.707 632.942 163.057 633.882 165.062C634.822 167.067 636.107 168.634 637.736 169.762C639.428 170.89 641.434 171.454 643.752 171.454ZM684.482 182.922V113.362H699.522V182.922H684.482ZM737.681 183.862C732.166 183.862 727.372 182.765 723.299 180.572C719.226 178.316 716.061 175.277 713.805 171.454C711.549 167.569 710.421 163.151 710.421 158.2C710.421 154.377 711.048 150.868 712.301 147.672C713.554 144.476 715.309 141.719 717.565 139.4C719.821 137.019 722.484 135.201 725.555 133.948C728.688 132.632 732.104 131.974 735.801 131.974C739.31 131.974 742.506 132.601 745.389 133.854C748.334 135.107 750.872 136.862 753.003 139.118C755.134 141.374 756.763 144.037 757.891 147.108C759.019 150.179 759.52 153.531 759.395 157.166L759.301 161.208H719.539L717.377 152.748H747.081L745.483 154.534V152.654C745.358 151.087 744.856 149.709 743.979 148.518C743.164 147.265 742.068 146.293 740.689 145.604C739.31 144.915 737.744 144.57 735.989 144.57C733.545 144.57 731.446 145.071 729.691 146.074C727.999 147.014 726.714 148.424 725.837 150.304C724.96 152.121 724.521 154.377 724.521 157.072C724.521 159.829 725.085 162.242 726.213 164.31C727.404 166.315 729.096 167.882 731.289 169.01C733.545 170.138 736.208 170.702 739.279 170.702C741.41 170.702 743.29 170.389 744.919 169.762C746.611 169.135 748.428 168.07 750.371 166.566L757.421 176.53C755.478 178.222 753.41 179.601 751.217 180.666C749.024 181.731 746.768 182.515 744.449 183.016C742.193 183.58 739.937 183.862 737.681 183.862ZM770.857 182.922V133.008H785.145L785.803 149.27L782.983 146.168C783.735 143.473 784.957 141.061 786.649 138.93C788.404 136.799 790.441 135.107 792.759 133.854C795.078 132.601 797.553 131.974 800.185 131.974C801.313 131.974 802.347 132.068 803.287 132.256C804.29 132.444 805.199 132.663 806.013 132.914L801.877 149.552C801.188 149.113 800.248 148.769 799.057 148.518C797.929 148.205 796.739 148.048 795.485 148.048C794.107 148.048 792.822 148.299 791.631 148.8C790.441 149.239 789.438 149.897 788.623 150.774C787.809 151.651 787.151 152.685 786.649 153.876C786.211 155.067 785.991 156.414 785.991 157.918V182.922H770.857Z" fill="#001A72"/>
</svg>
