<?xml version="1.0" encoding="utf-8"?>
<!-- Generator: Adobe Illustrator 16.0.0, SVG Export Plug-In . SVG Version: 6.00 Build 0)  -->
<!DOCTYPE svg PUBLIC "-//W3C//DTD SVG 1.1//EN" "http://www.w3.org/Graphics/SVG/1.1/DTD/svg11.dtd">
<svg version="1.1" id="Layer_1" xmlns="http://www.w3.org/2000/svg" xmlns:xlink="http://www.w3.org/1999/xlink" x="0px" y="0px"
	 width="560px" height="560px" viewBox="0 0 560 560" enable-background="new 0 0 560 560" xml:space="preserve">
<path fill="#B3E5E2" d="M84.882,286.587c44.16-49.538,120.114-53.898,169.653-9.737c49.537,44.157,53.897,120.111,9.738,169.65
	C220.113,496.038,5.804,555.872,5.804,555.872S40.724,336.123,84.882,286.587z"/>
<path fill="#59C7BF" d="M99.101,286.068c40.386-45.304,109.85-49.292,155.153-8.906c45.304,40.386,49.291,109.85,8.906,155.152
	C222.775,477.62,32.834,525.55,32.834,525.55S58.715,331.373,99.101,286.068z"/>
<radialGradient id="SVGID_1_" cx="191.4434" cy="347.6221" r="94.6523" gradientUnits="userSpaceOnUse">
	<stop  offset="0" style="stop-color:#00A99D;stop-opacity:0.7"/>
	<stop  offset="0.9532" style="stop-color:#00A99D;stop-opacity:0.9859"/>
	<stop  offset="1" style="stop-color:#00A99D;stop-opacity:1"/>
</radialGradient>
<circle fill="url(#SVGID_1_)" cx="191.444" cy="347.622" r="94.65"/>
<path fill="#B3E5E2" d="M282.731,87.738c-49.538,44.16-53.898,120.114-9.737,169.653c44.157,49.537,120.111,53.897,169.65,9.738
	c49.538-44.16,109.372-258.47,109.372-258.47S332.268,43.579,282.731,87.738z"/>
<path fill="#59C7BF" d="M282.213,101.956c-45.304,40.386-49.292,109.85-8.906,155.153c40.386,45.304,109.85,49.291,155.152,8.906
	c45.306-40.385,93.235-230.326,93.235-230.326S327.518,61.571,282.213,101.956z"/>
<radialGradient id="SVGID_2_" cx="181.4438" cy="356.6221" r="94.6523" gradientTransform="matrix(-1.571376e-010 1 1 1.571376e-010 -12.8555 12.8555)" gradientUnits="userSpaceOnUse">
	<stop  offset="0" style="stop-color:#00A99D;stop-opacity:0.7"/>
	<stop  offset="0.9532" style="stop-color:#00A99D;stop-opacity:0.9859"/>
	<stop  offset="1" style="stop-color:#00A99D;stop-opacity:1"/>
</radialGradient>
<circle fill="url(#SVGID_2_)" cx="343.767" cy="194.3" r="94.65"/>
</svg>
