<?xml version="1.0" encoding="utf-8"?>
<!-- Generator: Adobe Illustrator 24.0.1, SVG Export Plug-In . SVG Version: 6.00 Build 0)  -->
<svg version="1.1" id="Layer_1" xmlns="http://www.w3.org/2000/svg" xmlns:xlink="http://www.w3.org/1999/xlink" x="0px" y="0px"
	 viewBox="0 0 122 66" style="enable-background:new 0 0 122 66;" xml:space="preserve">
<style type="text/css">
	.st0{fill:#001A72;stroke:#FFFFFF;stroke-width:3;stroke-miterlimit:10;}
	.st1{fill:none;stroke:#FFFFFF;stroke-width:3;stroke-miterlimit:10;}
	.st2{fill:#FFFFFF;}
</style>
<g>
	<g>
		<g>
			<polygon class="st0" points="20.4,64 120,64 120,20.4 101.4,1.7 1.7,1.7 1.7,45.3 			"/>
			<polyline class="st1" points="120,20.4 20.4,20.4 20.4,64 			"/>
			<line class="st1" x1="20.4" y1="20.4" x2="1.7" y2="1.7"/>
		</g>
	</g>
	<g>
		<path class="st2" d="M46.2,46.5c0,3.3-2.1,6.1-7.4,6.1c-2.3,0-4.1-0.5-5.8-1.2v-4.5c1.7,0.9,3.8,1.4,5.7,1.4
			c1.7,0,2.6-0.5,2.6-1.5c0-3-8.3-2.1-8.3-8.3c0-3.8,3.1-6.2,7.3-6.2c1.8,0,3.4,0.4,5.1,1.4v4.8c-2.3-1.4-3.9-1.9-5.2-1.9
			c-1.6,0-2.4,0.6-2.4,1.5C37.7,41,46.2,39.9,46.2,46.5z"/>
		<path class="st2" d="M79.3,32.8L73,52.2h-4.8L64,38.8l-4.3,13.3h-4.8l-6.3-19.4H54l3.5,13l4.1-13h4.8l4.1,13l3.5-13h5.3V32.8z"/>
		<path class="st2" d="M109.4,39.4v12.8h-4.8v-12c0-2.1-1.5-3.3-3.1-3.3c-1.7,0-3.1,1.2-3.1,3.3v12h-4.8v-12c0-2.1-1.5-3.3-3.1-3.3
			c-1.7,0-3.1,1.2-3.1,3.3v12h-4.8V32.8h4.5v1.4c1.4-1.4,2.9-1.9,4.7-1.9c2,0,3.8,0.9,5,2.5c1.6-1.7,3.6-2.5,5.9-2.5
			C106.6,32.4,109.4,35.2,109.4,39.4z"/>
	</g>
</g>
</svg>
