<?xml version="1.0" encoding="UTF-8" standalone="no"?>
<!-- Generator: Adobe Illustrator 24.0.1, SVG Export Plug-In . SVG Version: 6.00 Build 0)  -->

<svg
   version="1.1"
   id="Layer_1"
   x="0px"
   y="0px"
   viewBox="0 0 200 200"
   xml:space="preserve"
   width="200"
   height="200"
   xmlns="http://www.w3.org/2000/svg"
   xmlns:svg="http://www.w3.org/2000/svg"><defs
   id="defs27" />
<style
   type="text/css"
   id="style2">
	.st0{fill:#001A72;stroke:#FFFFFF;stroke-width:3;stroke-miterlimit:10;}
	.st1{fill:none;stroke:#FFFFFF;stroke-width:3;stroke-miterlimit:10;}
	.st2{fill:#FFFFFF;}
</style>
<g
   id="g22"
   transform="matrix(1.5282395,0,0,1.5094133,7.0066264,50.415773)">
	<g
   id="g12">
		<g
   id="g10">
			<polygon
   class="st0"
   points="101.4,1.7 1.7,1.7 1.7,45.3 20.4,64 120,64 120,20.4 "
   id="polygon4" />
			<polyline
   class="st1"
   points="120,20.4 20.4,20.4 20.4,64    "
   id="polyline6" />
			<line
   class="st1"
   x1="20.4"
   y1="20.4"
   x2="1.7"
   y2="1.7"
   id="line8" />
		</g>
	</g>
	<g
   id="g20">
		<path
   class="st2"
   d="m 46.2,46.5 c 0,3.3 -2.1,6.1 -7.4,6.1 -2.3,0 -4.1,-0.5 -5.8,-1.2 v -4.5 c 1.7,0.9 3.8,1.4 5.7,1.4 1.7,0 2.6,-0.5 2.6,-1.5 0,-3 -8.3,-2.1 -8.3,-8.3 0,-3.8 3.1,-6.2 7.3,-6.2 1.8,0 3.4,0.4 5.1,1.4 v 4.8 c -2.3,-1.4 -3.9,-1.9 -5.2,-1.9 -1.6,0 -2.4,0.6 -2.4,1.5 -0.1,2.9 8.4,1.8 8.4,8.4 z"
   id="path14" />
		<path
   class="st2"
   d="M 79.3,32.8 73,52.2 H 68.2 L 64,38.8 59.7,52.1 H 54.9 L 48.6,32.7 H 54 l 3.5,13 4.1,-13 h 4.8 l 4.1,13 3.5,-13 h 5.3 z"
   id="path16" />
		<path
   class="st2"
   d="m 109.4,39.4 v 12.8 h -4.8 v -12 c 0,-2.1 -1.5,-3.3 -3.1,-3.3 -1.7,0 -3.1,1.2 -3.1,3.3 v 12 h -4.8 v -12 c 0,-2.1 -1.5,-3.3 -3.1,-3.3 -1.7,0 -3.1,1.2 -3.1,3.3 v 12 H 82.6 V 32.8 h 4.5 v 1.4 c 1.4,-1.4 2.9,-1.9 4.7,-1.9 2,0 3.8,0.9 5,2.5 1.6,-1.7 3.6,-2.5 5.9,-2.5 3.9,0.1 6.7,2.9 6.7,7.1 z"
   id="path18" />
	</g>
</g>
</svg>
