<svg width="228" height="64" viewBox="0 0 228 64" fill="none" xmlns="http://www.w3.org/2000/svg">
<g clip-path="url(#clip0_254_3277)">
<path d="M29.2469 20.9578C29.7579 20.2046 30.3173 20.1088 30.7711 20.1088C31.2249 20.1088 31.9809 20.2046 32.4921 20.9578C36.5201 26.4904 43.1689 37.5116 48.0735 45.6414C51.2719 50.9432 53.7285 55.0152 54.2325 55.5334C56.1245 57.4788 58.7193 56.2664 60.2271 54.0598C61.7115 51.8874 62.1235 50.362 62.1235 48.7346C62.1235 47.6262 40.6181 7.63014 38.4523 4.30096C36.3695 1.09885 35.6911 0.290039 32.1263 0.290039H29.4587C25.9045 0.290039 25.3909 1.09885 23.3079 4.30096C21.1423 7.63014 -0.363281 47.6262 -0.363281 48.7346C-0.363281 50.362 0.0488095 51.8874 1.53324 54.0598C3.04103 56.2664 5.63581 57.4788 7.52775 55.5334C8.03181 55.0152 10.4884 50.9432 13.6868 45.6414C18.5914 37.5116 25.2189 26.4904 29.2469 20.9578Z" fill="#FCFCFF"/>
<path d="M77.0742 3.82544V52.9266H106.994V42.966H87.396V32.5846H104.832V22.6242H87.396V13.786H106.994V3.82544H77.0742Z" fill="#FCFCFF"/>
<path d="M146.916 52.9266L134.502 35.1098L146.079 18.4856H134.362L128.643 26.6224L122.994 18.4856H111.138L122.715 35.18L110.371 52.9266H122.088L128.574 43.5974L135.06 52.9266H146.916Z" fill="#FCFCFF"/>
<path d="M171.868 17.7842C167.126 17.7842 163.429 19.7482 161.058 23.3256V18.4856H151.225V64.29H161.058V48.0866C163.429 51.664 167.126 53.628 171.868 53.628C180.726 53.628 187.769 45.5614 187.769 35.671C187.769 25.7806 180.726 17.7842 171.868 17.7842ZM169.637 44.1586C164.824 44.1586 161.058 40.511 161.058 35.671C161.058 30.9012 164.824 27.1836 169.637 27.1836C174.379 27.1836 178.215 30.9714 178.215 35.671C178.215 40.4408 174.379 44.1586 169.637 44.1586Z" fill="#FCFCFF"/>
<path d="M209.218 17.7842C199.105 17.7842 191.434 25.5 191.434 35.7412C191.434 45.9822 199.105 53.628 209.218 53.628C219.26 53.628 227.002 45.9822 227.002 35.7412C227.002 25.5 219.26 17.7842 209.218 17.7842ZM209.218 27.2536C213.82 27.2536 217.378 30.831 217.378 35.7412C217.378 40.511 213.82 44.1586 209.218 44.1586C204.544 44.1586 201.058 40.511 201.058 35.7412C201.058 30.831 204.544 27.2536 209.218 27.2536Z" fill="#FCFCFF"/>
</g>
<defs>
<clipPath id="clip0_254_3277">
<rect width="228" height="64" fill="white"/>
</clipPath>
</defs>
</svg>
