<svg width="1440" height="466" viewBox="0 0 1440 466" fill="none" xmlns="http://www.w3.org/2000/svg">
<g clip-path="url(#clip0_254_968)">
<path d="M1439.99 25.7538C1342.96 8.90207 1242.12 0 1138.63 0C667.327 0 250.905 184.282 0 466H1439.99V25.7538Z" fill="#B5E1F1"/>
<path d="M1384.5 177.5C1352.06 171.347 1334.5 198 1334.5 198C1301 230.5 1259.73 201 1259.73 201C1224.79 228.413 1188.78 207.713 1188.78 207.713C1150.64 231.767 1107.5 195 1107.5 195C1107.5 195 1107.1 249.555 1005.5 264.939C903.899 280.322 886.5 248.5 886.5 248.5C870.455 254.094 845.5 238 845.5 238C845.5 238 833.09 249.526 818.832 254C800.5 254 782 245.5 748.5 245.5C740.5 245.5 736.028 244.488 712.5 254C688.972 263.513 688.5 266 685 270.5C679.5 274.687 679.96 292.245 670.69 296.997C661.421 301.753 655.111 286.583 645.127 286.301C635.144 286.023 618.745 297.488 603.774 307.278C588.802 317.068 575.492 307.278 575.492 307.278C555.508 349.159 483.803 371.261 453.5 373.5C423.197 375.739 406.275 354.947 398.432 358.024C390.589 361.1 414.831 385.879 398.432 396.507C352 420.049 317.5 376 317.5 376C210.5 466 86.5 466 86.5 466H337.236H1440V215.541C1440 215.541 1435.44 186.653 1403 180.5L1384.5 177.5ZM928.56 402.529C945.995 374.317 994.912 388.362 994.912 388.362C952.574 420.049 928.56 402.529 928.56 402.529ZM491.5 426.5C466 416.5 633.326 369.547 633.326 369.547C603.774 446.5 491.5 426.5 491.5 426.5ZM804.617 398.566C754.403 405.888 748.478 397.13 743.055 390.504C737.632 383.879 738.867 362.298 785.482 358.024C835.311 353.457 836.521 379.473 836.521 379.473C848.179 375.651 857.642 365.126 857.642 365.126C857.642 365.126 854.831 391.244 804.617 398.566ZM804.108 333.668C761.247 340.615 745.121 359.319 745.121 359.319C749.495 351.31 774.86 327.466 818.832 325.504C862.798 323.542 871.49 343.531 871.49 343.531C871.49 343.531 846.97 326.726 804.108 333.673V333.668ZM1329.31 390.499C1170 455 1072.82 400.708 1059.9 363.671C1046.99 326.634 1120.5 296.997 1120.5 296.997C1120.5 296.997 1089.77 376.713 1213.13 371.124C1253.74 369.284 1276.32 362.196 1304.82 349.159C1348.64 329.107 1340.83 292.484 1304.82 277.5C1283.54 268.645 1253.69 263.454 1215 264.939C1133.06 268.084 1083 292 1083 292C1227.56 207.556 1342.27 253 1365.5 268.687C1401.5 293 1412.14 351.364 1329.31 390.499ZM674.5 382C701 372.5 689.5 353 689.5 353C689.5 353 699.5 353 704.5 360.5C707.972 365.708 702.5 373 743.055 363C743.055 363 710.534 388.824 689.5 387.5L674.5 382ZM384.863 450.66C364.716 458.552 375.928 441.98 375.928 441.98C375.928 441.98 376.815 446.235 384.199 444.385C391.582 442.535 409.048 431.67 422.041 420.049C422.041 420.049 403.21 443.485 384.869 450.665L384.863 450.66Z" fill="#E1F3FA"/>
<path d="M94 432.25C94 432.25 104.462 422.592 121.9 420.178C139.339 417.763 143.438 424.362 143.438 424.362C143.438 424.362 141.182 411.326 124.157 411.007C107.133 410.687 95.8424 422.11 94 432.25Z" fill="#E1F3FA"/>
<path d="M205.438 334C205.438 334 194.977 343.658 177.538 346.073C160.099 348.488 156 341.888 156 341.888C156 341.888 158.257 354.925 175.281 355.244C192.306 355.563 203.596 344.14 205.438 334Z" fill="#E1F3FA"/>
<path d="M265.438 312C265.438 312 254.977 321.658 237.538 324.072C220.099 326.487 216 319.888 216 319.888C216 319.888 218.257 332.924 235.281 333.243C252.306 333.563 263.596 322.14 265.438 312Z" fill="#E1F3FA"/>
<path d="M597 175.106C597 175.106 603.802 179.417 607.675 188.605C611.548 197.792 608.549 200.999 608.549 200.999C608.549 200.999 615.329 197.859 613.008 188.499C610.687 179.139 602.801 174.632 597 175.106Z" fill="#E1F3FA"/>
<path d="M569.682 282.006C569.682 282.006 542.188 315.967 488.237 329.805C434.278 343.648 431.208 329.984 445.362 311.704C445.362 311.704 412.334 331.412 417.561 347.105C422.795 362.797 469.263 354.348 509.882 334.791C550.501 315.239 562.298 295.703 569.682 282L569.682 282.006Z" fill="#E1F3FA"/>
<path d="M947 100.685C947 100.685 967.102 90.2258 983.106 90.2258C999.109 90.2258 993.16 98.5956 993.16 98.5956C993.16 98.5956 1005.67 91.9961 999.93 83.1444C994.189 74.2928 962.389 85.3966 947 100.685Z" fill="#E1F3FA"/>
<path d="M651.807 106.111C651.807 106.111 646.887 101.523 661.347 95.73C675.808 89.9373 686.891 93.7972 676.737 103.215C666.582 112.632 652.157 109.865 651.814 106.111H651.807Z" fill="#E1F3FA"/>
<path d="M853.01 226.972C853.01 226.972 852.674 220.253 867.086 226.165C881.499 232.077 886.765 242.565 872.919 242.253C859.073 241.941 850.647 229.909 853.015 226.977L853.01 226.972Z" fill="#E1F3FA"/>
<path d="M611.044 285.576C611.044 285.576 616.649 289.298 603.33 297.378C590.011 305.458 578.446 303.463 586.924 292.511C595.402 281.559 610.085 281.93 611.037 285.577L611.044 285.576Z" fill="#E1F3FA"/>
<path d="M340.945 368.013C340.945 368.013 340.563 357.073 363.866 367.046C387.169 377.019 395.479 394.212 372.96 393.364C350.441 392.516 337.029 372.735 340.953 368.022L340.945 368.013Z" fill="#E1F3FA"/>
<path d="M1084.82 191C1084.82 191 1085.32 211.683 1022.42 226.785C959.511 241.887 928.061 228.747 939.221 202.466C939.221 202.466 892.043 216.589 901.173 243.066C910.302 269.543 997.047 254.636 1023.43 245.224C1052.5 234.855 1087.86 223.649 1084.82 191Z" fill="#E1F3FA"/>
<path d="M668.164 214C668.164 214 667.712 195.478 723.818 181.954C779.923 168.429 807.973 180.197 798.019 203.732C798.019 203.732 840.097 191.084 831.954 167.374C823.812 143.663 746.444 157.012 722.909 165.441C696.986 174.727 665.45 184.762 668.164 214Z" fill="#E1F3FA"/>
<path d="M220.379 377C220.379 377 214.745 389.37 192.915 406.922C171.084 424.474 163.115 419.012 163.115 419.012C163.115 419.012 159.908 434.435 187.43 420.093C214.952 405.745 222.193 385.975 220.379 377Z" fill="#E1F3FA"/>
<path d="M174.533 411.174C174.533 411.174 182.089 400.608 194.057 394.372C206.026 388.137 215.366 381.947 211.717 379.487C208.068 377.028 180.732 391.907 174.533 411.174Z" fill="#E1F3FA"/>
<path d="M602.38 198.975C602.38 198.975 571.302 182.319 509.752 198.975C448.21 215.63 409.126 233.496 396.508 245.087C396.508 245.087 407.891 215.877 498.062 185.215C588.226 154.554 609.457 184.974 602.38 198.975Z" fill="#E1F3FA"/>
<path d="M577.143 219.496C577.143 219.496 546.372 240.331 492.827 254.538C439.283 268.746 409.433 256.678 439.59 229.636C439.59 229.636 383.275 249.435 398.664 274.539C414.053 299.648 532.218 269.469 577.15 219.496L577.143 219.496Z" fill="#E1F3FA"/>
<path d="M1168.51 169.229C1168.51 169.229 1151.08 167.139 1162.57 154.103C1174.06 141.066 1201.54 142.192 1213.03 145.089C1224.52 147.985 1225.75 158.607 1217.14 162.63C1217.14 162.63 1221.25 155.94 1201.75 156.226C1182.26 156.512 1165.03 165.207 1168.51 169.229Z" fill="#E1F3FA"/>
<path d="M1414.4 114.08C1414.4 114.08 1416.05 125.508 1382.6 125.508C1349.16 125.508 1346.5 110.539 1346.5 110.539C1346.5 110.539 1323.32 110.057 1318.8 112.954C1314.29 115.85 1321.27 132.427 1361.27 134.842C1401.28 137.256 1423.64 131.139 1414.41 114.08L1414.4 114.08Z" fill="#E1F3FA"/>
<path d="M1287.8 60.5706C1287.8 60.5706 1289.44 71.9993 1256 71.9993C1222.56 71.9993 1219.89 57.0299 1219.89 57.0299C1219.89 57.0299 1196.71 56.5481 1192.2 59.4445C1187.69 62.3409 1194.66 78.9182 1234.67 81.3328C1274.67 83.7474 1297.03 77.6296 1287.81 60.5706L1287.8 60.5706Z" fill="#E1F3FA"/>
<path d="M1411.12 106.673C1411.12 106.673 1394.29 92.6732 1355.32 90.2586C1316.34 87.844 1307.24 104.259 1307.24 104.259C1307.24 104.259 1340.75 93.7992 1411.12 106.673Z" fill="#E1F3FA"/>
<path d="M1356.87 169.425C1356.87 169.425 1338.43 152.366 1374.54 148.663C1410.64 144.96 1430.13 156.708 1435.67 162.181C1441.21 167.655 1432.59 175.055 1420.08 178.114C1420.08 178.114 1430.34 173.447 1412.49 165.722C1394.65 157.996 1376.39 160.573 1368.59 161.699C1360.79 162.825 1356.73 164.775 1356.87 169.425Z" fill="#E1F3FA"/>
<path d="M888.946 50.6562C888.946 50.6562 868.251 42.9194 902.628 36.023C937.705 28.9865 956.608 30.9529 964.342 32.2134C970.998 33.2946 968.27 39.2331 956.615 43.2051C956.615 43.2051 961.05 39.3731 942.397 38.4095C923.744 37.4515 906.427 42.2135 899.036 44.264C891.645 46.3144 888.024 48.1295 888.946 50.6506V50.6562Z" fill="#E1F3FA"/>
<path d="M1378.87 30.3426C1378.98 28.3921 1373.77 26.6294 1367.23 26.4055C1360.69 26.1816 1355.31 27.5813 1355.2 29.5318C1355.09 31.4823 1360.3 33.245 1366.84 33.4689C1373.37 33.6928 1378.76 32.2931 1378.87 30.3426Z" fill="#E1F3FA"/>
<path d="M1095.45 32.4207C1112.4 32.2536 1126.11 30.1193 1126.07 27.6535C1126.03 25.1877 1112.26 23.3243 1095.31 23.4914C1078.36 23.6585 1064.65 25.7929 1064.69 28.2586C1064.73 30.7244 1078.5 32.5879 1095.45 32.4207Z" fill="#E1F3FA"/>
<path d="M653.067 147.707C672.901 143.219 688.274 137.659 687.403 135.29C686.532 132.921 669.747 134.638 649.913 139.127C630.079 143.615 614.706 149.174 615.577 151.543C616.449 153.913 633.233 152.195 653.067 147.707Z" fill="#E1F3FA"/>
<path d="M925.109 51.5804C940.158 49.371 951.941 46.107 951.427 44.29C950.914 42.4731 938.298 42.7912 923.249 45.0006C908.2 47.2099 896.416 50.4739 896.93 52.2909C897.444 54.1079 910.06 53.7898 925.109 51.5804Z" fill="#E1F3FA"/>
<path d="M1195.29 168.707C1206.23 167.101 1214.8 164.729 1214.42 163.408C1214.05 162.088 1203.63 158.318 1192.69 159.924C1181.75 161.53 1174.44 167.903 1174.81 169.223C1175.19 170.544 1184.36 170.313 1195.29 168.707Z" fill="#E1F3FA"/>
<path d="M951.563 116.159C966.407 113.739 977.921 109.82 977.281 107.406C976.642 104.991 964.09 104.996 949.247 107.416C934.404 109.836 922.889 113.755 923.529 116.169C924.168 118.584 936.72 118.579 951.563 116.159Z" fill="#E1F3FA"/>
<path d="M1391.72 59.5186C1392.36 55.818 1382.78 51.7422 1370.31 50.415C1357.85 49.0879 1347.23 51.0119 1346.59 54.7125C1345.95 58.4131 1355.53 62.489 1368 63.8161C1380.46 65.1433 1391.08 63.2192 1391.72 59.5186Z" fill="#E1F3FA"/>
<path d="M1315.29 201.507C1315.93 197.806 1306.35 193.73 1293.88 192.403C1281.42 191.076 1270.8 193 1270.16 196.701C1269.52 200.401 1279.1 204.477 1291.57 205.804C1304.03 207.131 1314.65 205.207 1315.29 201.507Z" fill="#E1F3FA"/>
<path d="M1326.56 35.8254C1326.95 32.8398 1319.11 29.7648 1309.04 28.9573C1298.98 28.1497 1290.51 29.9155 1290.12 32.9011C1289.73 35.8868 1297.57 38.9618 1307.63 39.7693C1317.7 40.5768 1326.17 38.8111 1326.56 35.8254Z" fill="#E1F3FA"/>
<path d="M1239.15 202.33C1239.54 199.345 1231.7 196.27 1221.63 195.462C1211.57 194.655 1203.09 196.42 1202.7 199.406C1202.32 202.392 1210.16 205.467 1220.22 206.274C1230.29 207.082 1238.76 205.316 1239.15 202.33Z" fill="#E1F3FA"/>
<path d="M1425.79 46.1291C1426.27 43.8831 1420.53 41.2568 1412.97 40.2631C1405.41 39.2693 1398.89 40.2844 1398.41 42.5303C1397.93 44.7762 1403.67 47.4025 1411.23 48.3963C1418.8 49.3901 1425.31 48.375 1425.79 46.1291Z" fill="#E1F3FA"/>
<path d="M459.312 180.196C471.29 174.249 479.741 167.868 478.188 165.944C476.636 164.02 465.668 167.281 453.691 173.228C441.713 179.175 433.262 185.556 434.815 187.48C436.367 189.404 447.335 186.143 459.312 180.196Z" fill="#E1F3FA"/>
<path d="M622.559 132.934C630.69 130.445 636.437 126.73 635.396 124.638C634.355 122.545 626.92 122.867 618.789 125.356C610.659 127.846 604.911 131.56 605.952 133.653C606.993 135.746 614.429 135.424 622.559 132.934Z" fill="#E1F3FA"/>
<path d="M331.196 247.302C338.917 242.083 342.688 235.588 339.619 232.794C336.55 230 327.804 231.965 320.083 237.184C312.363 242.403 308.592 248.899 311.66 251.693C314.729 254.487 323.476 252.521 331.196 247.302Z" fill="#E1F3FA"/>
<path d="M246.092 309.568C253.813 304.349 257.584 297.853 254.515 295.059C251.446 292.265 242.7 294.231 234.979 299.45C227.259 304.668 223.488 311.164 226.556 313.958C229.625 316.752 238.372 314.786 246.092 309.568Z" fill="#E1F3FA"/>
<path d="M124.092 445.568C131.813 440.349 135.584 433.853 132.515 431.059C129.446 428.265 120.7 430.231 112.979 435.45C105.259 440.668 101.488 447.164 104.556 449.958C107.625 452.752 116.372 450.786 124.092 445.568Z" fill="#E1F3FA"/>
<path d="M515.544 159.71C524.091 155.995 528.989 150.301 526.484 146.992C523.98 143.683 515.021 144.011 506.475 147.726C497.928 151.441 493.03 157.135 495.535 160.444C498.039 163.753 506.998 163.425 515.544 159.71Z" fill="#E1F3FA"/>
<path d="M867.211 262.329C865.381 259.938 857.652 263.29 849.949 269.816C842.245 276.341 837.483 283.57 839.313 285.961C841.143 288.352 848.872 285 856.575 278.474C864.279 271.949 869.041 264.72 867.211 262.329Z" fill="#B5E1F1"/>
<path d="M341.256 413.41C342.761 410.803 336.7 404.953 327.717 400.344C318.734 395.736 310.231 394.114 308.726 396.721C307.22 399.329 313.282 405.179 322.265 409.787C331.248 414.396 339.75 416.018 341.256 413.41Z" fill="#B5E1F1"/>
</g>
<defs>
<clipPath id="clip0_254_968">
<rect width="1440" height="466" fill="white"/>
</clipPath>
</defs>
</svg>
