<svg width="1351" height="476" viewBox="0 0 1351 476" fill="none" xmlns="http://www.w3.org/2000/svg">
<path d="M220.053 126L233.227 136.936L250.105 134.053L239.169 147.227L242.053 164.105L228.878 153.169L212 156.053L222.936 142.878L220.053 126Z" fill="url(#paint0_linear_254_997)"/>
<path d="M574.817 189.725L584.577 197.826L597.081 195.69L588.98 205.451L591.116 217.955L581.355 209.853L568.851 211.989L576.953 202.229L574.817 189.725Z" fill="url(#paint1_linear_254_997)"/>
<path d="M455.168 33.0471L464.805 41.0467L477.151 38.9377L469.152 48.5753L471.261 60.9215L461.623 52.9219L449.277 55.0309L457.277 45.3933L455.168 33.0471Z" fill="url(#paint2_linear_254_997)"/>
<path d="M553.727 117.199L559.835 122.27L567.661 120.933L562.59 127.042L563.927 134.868L557.818 129.797L549.993 131.134L555.063 125.025L553.727 117.199Z" fill="url(#paint3_linear_254_997)"/>
<path d="M105.549 207.513L112.152 212.994L120.611 211.549L115.13 218.152L116.575 226.611L109.972 221.13L101.513 222.575L106.994 215.972L105.549 207.513Z" fill="url(#paint4_linear_254_997)"/>
<path d="M17.5 317L22.2266 329.773L35 334.5L22.2266 339.227L17.5 352L12.7734 339.227L0 334.5L12.7734 329.773L17.5 317Z" fill="url(#paint5_linear_254_997)"/>
<path d="M75.6147 71.3556L76.5177 81.0781L84.4862 86.7214L74.7637 87.6244L69.1204 95.5929L68.2174 85.8703L60.2489 80.227L69.9715 79.3241L75.6147 71.3556Z" fill="url(#paint6_linear_254_997)"/>
<path d="M404 155L407.781 165.219L418 169L407.781 172.781L404 183L400.219 172.781L390 169L400.219 165.219L404 155Z" fill="url(#paint7_linear_254_997)"/>
<path d="M666.5 5L671.767 19.2332L686 24.5L671.767 29.7668L666.5 44L661.233 29.7668L647 24.5L661.233 19.2332L666.5 5Z" fill="url(#paint8_linear_254_997)"/>
<path d="M314 74L316.971 82.029L325 85L316.971 87.971L314 96L311.029 87.971L303 85L311.029 82.029L314 74Z" fill="url(#paint9_linear_254_997)"/>
<path d="M760 146L753.614 159.89L760 173.779L746.111 167.392L732.222 173.779L738.609 159.89L732.222 146L746.111 152.387L760 146Z" fill="url(#paint10_linear_254_997)"/>
<path d="M1048.83 73.8332L1044.26 83.7778L1048.83 93.7223L1038.89 89.1497L1028.94 93.7223L1033.52 83.7778L1028.94 73.8332L1038.89 78.4059L1048.83 73.8332Z" fill="url(#paint11_linear_254_997)"/>
<path d="M1237.58 355.361L1234.58 361.889L1237.58 368.417L1231.05 365.415L1224.53 368.417L1227.53 361.889L1224.53 355.361L1231.05 358.362L1237.58 355.361Z" fill="#F8F9FF"/>
<path d="M1321.58 462.528L1318.58 469.056L1321.58 475.583L1315.06 472.582L1308.53 475.583L1311.53 469.056L1308.53 462.528L1315.06 465.529L1321.58 462.528Z" fill="#F8F9FF"/>
<path d="M1301.5 203L1304.34 210.664L1312 213.5L1304.34 216.336L1301.5 224L1298.66 216.336L1291 213.5L1298.66 210.664L1301.5 203Z" fill="url(#paint12_linear_254_997)"/>
<path d="M1211.33 128.111L1208.22 134.889L1211.33 141.667L1204.55 138.55L1197.78 141.667L1200.89 134.889L1197.78 128.111L1204.55 131.227L1211.33 128.111Z" fill="url(#paint13_linear_254_997)"/>
<path d="M1340.83 22.9446L1336.26 32.8891L1340.83 42.8337L1330.89 38.261L1320.94 42.8337L1325.52 32.8891L1320.94 22.9446L1330.89 27.5172L1340.83 22.9446Z" fill="url(#paint14_linear_254_997)"/>
<path d="M920.084 130.305L918.104 134.611L920.084 138.916L915.778 136.937L911.473 138.916L913.453 134.611L911.473 130.305L915.778 132.285L920.084 130.305Z" fill="url(#paint15_linear_254_997)"/>
<path d="M1161.61 51.5225L1163.26 55.9667L1167.7 57.6112L1163.26 59.2558L1161.61 63.7L1159.97 59.2558L1155.52 57.6112L1159.97 55.9667L1161.61 51.5225Z" fill="url(#paint16_linear_254_997)"/>
<path d="M846.698 68.3923L851.34 74.9472L859.338 75.69L852.783 80.3322L852.041 88.3299L847.398 81.7751L839.401 81.0323L845.955 76.3901L846.698 68.3923Z" fill="url(#paint17_linear_254_997)"/>
<path d="M1001.31 2.67113L1002.05 10.6689L1008.61 15.311L1000.61 16.0538L995.968 22.6087L995.226 14.611L988.671 9.96879L996.668 9.22599L1001.31 2.67113Z" fill="#F8F9FF"/>
<defs>
<linearGradient id="paint0_linear_254_997" x1="220.053" y1="126" x2="251" y2="175" gradientUnits="userSpaceOnUse">
<stop stop-color="#F8F9FF"/>
<stop offset="1" stop-color="#F8F9FF" stop-opacity="0"/>
</linearGradient>
<linearGradient id="paint1_linear_254_997" x1="574.817" y1="189.725" x2="594" y2="231" gradientUnits="userSpaceOnUse">
<stop stop-color="#F8F9FF"/>
<stop offset="1" stop-color="#F8F9FF" stop-opacity="0"/>
</linearGradient>
<linearGradient id="paint2_linear_254_997" x1="455.168" y1="33.0471" x2="471.261" y2="60.9215" gradientUnits="userSpaceOnUse">
<stop stop-color="#F8F9FF"/>
<stop offset="1" stop-color="#F8F9FF" stop-opacity="0"/>
</linearGradient>
<linearGradient id="paint3_linear_254_997" x1="553.727" y1="117.199" x2="563.927" y2="134.868" gradientUnits="userSpaceOnUse">
<stop stop-color="#F8F9FF"/>
<stop offset="1" stop-color="#F8F9FF" stop-opacity="0"/>
</linearGradient>
<linearGradient id="paint4_linear_254_997" x1="105.549" y1="207.513" x2="116.575" y2="226.611" gradientUnits="userSpaceOnUse">
<stop stop-color="#F8F9FF"/>
<stop offset="1" stop-color="#F8F9FF" stop-opacity="0"/>
</linearGradient>
<linearGradient id="paint5_linear_254_997" x1="17.5" y1="317" x2="17.5" y2="352" gradientUnits="userSpaceOnUse">
<stop stop-color="#F8F9FF"/>
<stop offset="1" stop-color="#F8F9FF" stop-opacity="0"/>
</linearGradient>
<linearGradient id="paint6_linear_254_997" x1="75.6147" y1="71.3556" x2="69.1204" y2="95.5929" gradientUnits="userSpaceOnUse">
<stop stop-color="#F8F9FF"/>
<stop offset="1" stop-color="#F8F9FF" stop-opacity="0"/>
</linearGradient>
<linearGradient id="paint7_linear_254_997" x1="404" y1="155" x2="404" y2="193" gradientUnits="userSpaceOnUse">
<stop stop-color="#F8F9FF"/>
<stop offset="1" stop-color="#F8F9FF" stop-opacity="0"/>
</linearGradient>
<linearGradient id="paint8_linear_254_997" x1="666.5" y1="5" x2="667" y2="49" gradientUnits="userSpaceOnUse">
<stop stop-color="#F8F9FF"/>
<stop offset="1" stop-color="#F8F9FF" stop-opacity="0"/>
</linearGradient>
<linearGradient id="paint9_linear_254_997" x1="314" y1="74" x2="314" y2="96" gradientUnits="userSpaceOnUse">
<stop stop-color="#F8F9FF"/>
<stop offset="1" stop-color="#F8F9FF" stop-opacity="0"/>
</linearGradient>
<linearGradient id="paint10_linear_254_997" x1="760" y1="146" x2="718" y2="179" gradientUnits="userSpaceOnUse">
<stop stop-color="#F8F9FF"/>
<stop offset="1" stop-color="#F8F9FF" stop-opacity="0"/>
</linearGradient>
<linearGradient id="paint11_linear_254_997" x1="1048.83" y1="73.8332" x2="1028.94" y2="93.7223" gradientUnits="userSpaceOnUse">
<stop stop-color="#F8F9FF"/>
<stop offset="1" stop-color="#F8F9FF" stop-opacity="0"/>
</linearGradient>
<linearGradient id="paint12_linear_254_997" x1="1301.5" y1="203" x2="1301.5" y2="224" gradientUnits="userSpaceOnUse">
<stop stop-color="#F8F9FF"/>
<stop offset="1" stop-color="#F8F9FF" stop-opacity="0"/>
</linearGradient>
<linearGradient id="paint13_linear_254_997" x1="1211.33" y1="128.111" x2="1197.78" y2="141.667" gradientUnits="userSpaceOnUse">
<stop stop-color="#F8F9FF"/>
<stop offset="1" stop-color="#F8F9FF" stop-opacity="0"/>
</linearGradient>
<linearGradient id="paint14_linear_254_997" x1="1340.83" y1="22.9446" x2="1320.94" y2="42.8337" gradientUnits="userSpaceOnUse">
<stop stop-color="#F8F9FF"/>
<stop offset="1" stop-color="#F8F9FF" stop-opacity="0"/>
</linearGradient>
<linearGradient id="paint15_linear_254_997" x1="920.084" y1="130.305" x2="911.473" y2="138.916" gradientUnits="userSpaceOnUse">
<stop stop-color="#F8F9FF"/>
<stop offset="1" stop-color="#F8F9FF" stop-opacity="0"/>
</linearGradient>
<linearGradient id="paint16_linear_254_997" x1="1161.61" y1="51.5225" x2="1161.61" y2="63.7" gradientUnits="userSpaceOnUse">
<stop stop-color="#F8F9FF"/>
<stop offset="1" stop-color="#F8F9FF" stop-opacity="0"/>
</linearGradient>
<linearGradient id="paint17_linear_254_997" x1="846.698" y1="68.3923" x2="852.041" y2="88.3299" gradientUnits="userSpaceOnUse">
<stop stop-color="#F8F9FF"/>
<stop offset="1" stop-color="#F8F9FF" stop-opacity="0"/>
</linearGradient>
</defs>
</svg>
