<svg width="34" height="24" viewBox="0 0 34 24" fill="none" xmlns="http://www.w3.org/2000/svg">
<path d="M0.802137 7.33014C0.439188 7.74641 0.482419 8.3781 0.898696 8.74105L7.68232 14.6556C8.0986 15.0186 8.73029 14.9754 9.09323 14.5591C9.45618 14.1428 9.41295 13.5111 8.99668 13.1482L2.96679 7.89076L8.2242 1.86087C8.58715 1.44459 8.54392 0.812902 8.12765 0.449953C7.71137 0.0870039 7.07968 0.130235 6.71673 0.546512L0.802137 7.33014ZM33.1388 23.1428C30.8734 17.0312 21.3829 5.62807 1.4876 6.98965L1.62415 8.98498C20.5812 7.68762 29.2872 18.5063 31.2635 23.838L33.1388 23.1428Z" fill="#001A72"/>
</svg>
