<svg width="228" height="64" viewBox="0 0 228 64" fill="none" xmlns="http://www.w3.org/2000/svg">
<g clip-path="url(#clip0_543_465)">
<path d="M29.6102 20.6678C30.1212 19.9146 30.6805 19.8188 31.1343 19.8188C31.5882 19.8188 32.3442 19.9146 32.8554 20.6678C36.8834 26.2004 43.5322 37.2216 48.4367 45.3514C51.6351 50.6532 54.0917 54.7252 54.5957 55.2434C56.4877 57.1888 59.0826 55.9764 60.5904 53.7698C62.0748 51.5974 62.4868 50.072 62.4868 48.4446C62.4868 47.3362 40.9814 7.3401 38.8156 4.01092C36.7327 0.808812 36.0544 0 32.4896 0H29.822C26.2678 0 25.7542 0.808812 23.6712 4.01092C21.5056 7.3401 0 47.3362 0 48.4446C0 50.072 0.412091 51.5974 1.89652 53.7698C3.40431 55.9764 5.99909 57.1888 7.89103 55.2434C8.39509 54.7252 10.8517 50.6532 14.0501 45.3514C18.9547 37.2216 25.5822 26.2004 29.6102 20.6678Z" fill="white"/>
<path d="M77.4365 3.5354V52.6366H107.356V42.676H87.7583V32.2946H105.194V22.3342H87.7583V13.4959H107.356V3.5354H77.4365Z" fill="white"/>
<path d="M147.279 52.6365L134.865 34.8197L146.442 18.1956H134.725L129.006 26.3323L123.357 18.1956H111.501L123.078 34.8899L110.734 52.6365H122.45L128.936 43.3073L135.422 52.6365H147.279Z" fill="white"/>
<path d="M172.231 17.4941C167.488 17.4941 163.792 19.4582 161.421 23.0356V18.1956H151.587V64H161.421V47.7966C163.792 51.374 167.488 53.338 172.231 53.338C181.088 53.338 188.132 45.2714 188.132 35.381C188.132 25.4906 181.088 17.4941 172.231 17.4941ZM169.999 43.8686C165.187 43.8686 161.421 40.221 161.421 35.381C161.421 30.6112 165.187 26.8936 169.999 26.8936C174.741 26.8936 178.577 30.6814 178.577 35.381C178.577 40.1508 174.741 43.8686 169.999 43.8686Z" fill="white"/>
<path d="M209.582 17.4941C199.469 17.4941 191.797 25.21 191.797 35.4512C191.797 45.6922 199.469 53.338 209.582 53.338C219.624 53.338 227.366 45.6922 227.366 35.4512C227.366 25.21 219.624 17.4941 209.582 17.4941ZM209.582 26.9636C214.184 26.9636 217.742 30.541 217.742 35.4512C217.742 40.221 214.184 43.8686 209.582 43.8686C204.908 43.8686 201.422 40.221 201.422 35.4512C201.422 30.541 204.908 26.9636 209.582 26.9636Z" fill="white"/>
</g>
<defs>
<clipPath id="clip0_543_465">
<rect width="228" height="64" fill="white"/>
</clipPath>
</defs>
</svg>
