<svg width="26" height="26" viewBox="0 0 26 26" fill="none" xmlns="http://www.w3.org/2000/svg">
<path d="M1.92078 1.24001C1.04032 1.73432 0.738615 2.8289 1.24686 3.68491L10.1753 18.7189C10.4373 19.1549 10.0336 19.6987 9.52902 19.5788L3.71115 18.1962C2.72356 17.9615 1.72731 18.5497 1.48598 19.5098C1.24465 20.47 1.84954 21.4386 2.83713 21.6732C5.26332 22.2498 14.7133 25.8845 16.6474 24.7988L23.597 20.8978C24.0935 20.6191 24.4285 20.1311 24.4594 19.5746C24.5502 17.9481 24.5262 14.3825 22.9268 11.5612L22.9282 11.5603L19.2466 5.3606C18.7384 4.50459 17.6125 4.21144 16.7321 4.70557C15.8516 5.19971 15.5501 6.29429 16.0584 7.1503L15.5982 6.37536C15.0899 5.51935 13.9641 5.22602 13.0836 5.72033C12.2032 6.21447 11.9014 7.30904 12.4097 8.16505L11.9495 7.39012C11.4412 6.5341 10.3154 6.24077 9.43495 6.73509C8.55449 7.22922 8.25297 8.3238 8.76122 9.17981L4.43532 1.89521C3.92707 1.0392 2.80124 0.745872 1.92078 1.24001Z" fill="white" stroke="#001A72" stroke-width="2" stroke-linecap="round" stroke-linejoin="round"/>
</svg>
