<svg width="1189" height="1000" viewBox="0 0 1189 1000" fill="none" xmlns="http://www.w3.org/2000/svg">
<path d="M457.6 273.4L448.4 266.3C444.2 263.8 438.8 263.3 433.9 266L235 374.4C231 376.6 228.5 380.8 228.5 385.4V823.3C228.5 826.5 230.1 829.2 232.4 830.8C233.2 831.3 242.9 837.3 242.9 837.3" stroke="#001574" stroke-width="2.6" stroke-miterlimit="10"/>
<path d="M459.9 517.7V279.2C459.9 272.8 453 268.7 447.4 271.8L245.4 382C241.4 384.2 238.9 388.4 238.9 393V829.8C238.9 836.7 246.2 841 252.3 837.8L452.3 729.1C457 726.5 460 721.6 460 716.2V570.8" stroke="#001574" stroke-width="2.6" stroke-miterlimit="10"/>
<path d="M449.5 523.8V291.3C449.5 287.9 445.8 285.7 442.8 287.3L259.4 387.6C253.7 390.6 250.2 396.5 250.2 402.9V769.4C250.2 775.1 256.2 778.7 261.2 776L442.2 679.4C446.6 677 449.4 672.4 449.4 667.4V574.9" stroke="#001574" stroke-width="2.6" stroke-miterlimit="10"/>
<path d="M373.931 755.526C379.178 746.438 378.779 736.385 373.039 733.072C367.3 729.758 358.394 734.438 353.147 743.526C347.901 752.613 348.3 762.666 354.039 765.98C359.779 769.293 368.685 764.613 373.931 755.526Z" stroke="#001574" stroke-width="2.5275" stroke-miterlimit="10"/>
<path d="M1070.9 366.6C1071 345.7 1052.4 333.1 1039.5 329.8C1026.3 326.5 978.5 359.5 904.8 376.7C876.7 383.3 760.5 388.2 739.5 389.5C704.9 391.7 681.2 396.7 672.8 400.2C665.8 403.2 665.8 411.4 665.8 411.4V414.4L649.7 419.1C674.5 396 706.5 343.3 731.9 320.3C763.4 291.7 819.5 271.4 837.7 258.7C855.9 246 855.6 212.9 851.3 200.6C847 188.3 830.4 183.9 820.5 190C805.8 199.1 767.4 209.8 729.8 228.4C693.3 246.3 661.6 288.2 650.3 305.8C636.7 327.1 629.7 325.1 613.8 331.4C597.9 337.8 583.2 357 578.4 369.4C575.2 377.6 574.7 384.2 574.7 387.7L565.7 393.7L564.9 401.6C559.3 403.4 554.4 405.8 550.2 408.7L537.3 403.4L374.9 488.8L378.6 523.4L380.7 528H383.4L384.5 526.7L387.3 526.8L388.2 525.6H390.9L392 524.3L394.8 524.4L395.7 523L398.4 523.3L399.3 522.1H402L403.1 520.8L405.9 520.9L406.8 519.5L409.5 519.8L410.4 518.6H413.1L414.2 517.3L417 517.4L417.9 516L420.6 516.3L421.9 514.9L424.1 515.3L425.8 513.7L428.2 513.9L429.2 512.5H431.6L432.2 508.1L438.5 506.5L440.1 502.2L446.8 501.5L450.3 497.4L456 498.2L458.7 494.7L465.3 495.9L470.3 492.8L475.4 495.1L480.3 491.5H487L532.8 477.4C533.9 480.2 535.6 482.8 537.8 485.2C531 489.4 523.9 491 514.1 491.1C512.2 491.1 510.2 491 508.4 490.9L506.4 494L506.8 496.7L501 498.5L500.2 504.5L494.1 504.7L493.3 509.5L485.1 509.6L482.4 514.6L475.1 513.1L471 517.6L465.1 515.9L462.7 517.1L462 518.7L459.6 519.1L458.3 521.1L456 521.3L455 523L452.2 523.4L451.7 525L448.9 525.6L448.2 527.2L445.5 527.9L444.9 529.3L442 529L441.5 530.6L438.7 531.2L438 532.8L435.3 533.5L434.7 534.9L431.9 535.3L431.4 536.9L428.6 537.5L427.9 539.1L425.2 539.8L424.6 541.2L421.8 541.8L421.1 543.4L423.8 578.2L430.5 583.2L610 504.7L610.2 496.4C616.7 494.1 622.3 490.8 626.7 487V487.2L634.7 492.9L665.9 483.4V488.1C665.9 488.1 665.7 495 671.3 496.6C681.4 499.3 693.1 502.2 720.9 489.9C757.9 473.5 765.2 479.6 857.6 468.6C950 457.6 1028.3 412.5 1040.4 405.2C1052.3 397.8 1070.9 387.5 1070.9 366.6Z" stroke="#001574" stroke-width="2.6" stroke-miterlimit="10" stroke-linecap="round" stroke-linejoin="round"/>
<path d="M549.5 473.6C542.1 469.1 536.9 461.9 534.7 455.2" stroke="#001574" stroke-width="2.6" stroke-miterlimit="10" stroke-linecap="round" stroke-linejoin="round"/>
<path d="M627 469.9C622.4 473.6 616.6 476.6 610 478.8" stroke="#001574" stroke-width="2.6" stroke-miterlimit="10"/>
<path d="M532.2 477.4L535.1 448.2C535.1 448.2 526.1 438.4 511.6 437.3C496.8 436.2 481.4 441 477.8 459.1" stroke="#001574" stroke-width="2.6" stroke-miterlimit="10"/>
<path d="M671.8 447.9L634.9 459.4L627 454L626.6 454.3L626.7 487.2L634.6 492.8L671.6 481.7V447.7" stroke="#001574" stroke-width="2.6" stroke-miterlimit="10"/>
<path d="M428.5 549.2L430.4 583.1" stroke="#001574" stroke-width="2.6" stroke-miterlimit="10"/>
<path d="M634.9 459.4L634.6 492.8" stroke="#001574" stroke-width="2.6" stroke-miterlimit="10"/>
<path d="M639 424.7C654.9 409.1 650.1 388.9 645.9 380.4C640.9 370.3 613.1 366.4 594.9 365.8C576.7 365.2 574.5 383.8 574.5 383.8" stroke="#001574" stroke-width="2.6" stroke-miterlimit="10"/>
<path d="M846.3 200.6C846.3 200.6 785.1 215.3 744.3 248.8C705.5 280.6 691.4 325.8 665.7 347.5C652 359.1 644.5 371.5 644.5 371.5" stroke="#001574" stroke-width="2.6" stroke-miterlimit="10"/>
<path d="M463.7 461.2L465.2 495.5" stroke="#001574" stroke-width="2.6" stroke-miterlimit="10"/>
<path d="M454.2 463.5L456 497.9" stroke="#001574" stroke-width="2.6" stroke-miterlimit="10"/>
<path d="M444.8 466.8L447.3 501.8" stroke="#001574" stroke-width="2.6" stroke-miterlimit="10"/>
<path d="M436.3 471.8L438.6 507.1" stroke="#001574" stroke-width="2.6" stroke-miterlimit="10"/>
<path d="M429.2 477.8L432.6 510" stroke="#001574" stroke-width="2.6" stroke-miterlimit="10"/>
<path d="M457 460L459 496" stroke="#001574" stroke-width="2.6" stroke-miterlimit="10"/>
<path d="M448.4 462.7L450.7 498.8" stroke="#001574" stroke-width="2.6" stroke-miterlimit="10"/>
<path d="M439.1 467.6L441.4 503.7" stroke="#001574" stroke-width="2.6" stroke-miterlimit="10"/>
<path d="M468.9 458L470.3 492.4" stroke="#001574" stroke-width="2.6" stroke-miterlimit="10"/>
<path d="M474.1 460.9L475.4 494.7" stroke="#001574" stroke-width="2.6" stroke-miterlimit="10"/>
<path d="M377 493.3L380.7 529.2" stroke="#001574" stroke-width="2.6" stroke-miterlimit="10"/>
<path d="M380.4 492.9L384.2 529.3" stroke="#001574" stroke-width="2.6" stroke-miterlimit="10"/>
<path d="M383.7 491.5L387.5 527.9" stroke="#001574" stroke-width="2.6" stroke-miterlimit="10"/>
<path d="M387.3 490.4L391.2 526.8" stroke="#001574" stroke-width="2.6" stroke-miterlimit="10"/>
<path d="M391.3 489.2L395.1 525.7" stroke="#001574" stroke-width="2.6" stroke-miterlimit="10"/>
<path d="M394.6 487.8L398.5 524.3" stroke="#001574" stroke-width="2.6" stroke-miterlimit="10"/>
<path d="M398.6 487.3L402.4 523.8" stroke="#001574" stroke-width="2.6" stroke-miterlimit="10"/>
<path d="M402.5 486.1L406.4 522.6" stroke="#001574" stroke-width="2.6" stroke-miterlimit="10"/>
<path d="M406.4 484.8L410.3 521.3" stroke="#001574" stroke-width="2.6" stroke-miterlimit="10"/>
<path d="M410.2 483.9L414 520.4" stroke="#001574" stroke-width="2.6" stroke-miterlimit="10"/>
<path d="M414 482.5L417.9 519" stroke="#001574" stroke-width="2.6" stroke-miterlimit="10"/>
<path d="M418 481.5L421.8 518" stroke="#001574" stroke-width="2.6" stroke-miterlimit="10"/>
<path d="M421.5 480.5L425.3 517" stroke="#001574" stroke-width="2.6" stroke-miterlimit="10"/>
<path d="M425.5 479.4L429.3 515.9" stroke="#001574" stroke-width="2.6" stroke-miterlimit="10"/>
<path d="M637.7 421.1C641 413.6 641.1 396 640.5 391.9C640 388 634.5 386.9 634.5 386.9L590.7 377.2L565.7 393.8" stroke="#001574" stroke-width="2.6" stroke-miterlimit="10"/>
<path d="M1054 341.3C1054 341.3 981.5 382.1 915.5 398.8C849.5 415.5 778.5 410.1 725.3 426.2C695.5 435.2 685.5 440.8 670.8 443.7" stroke="#001574" stroke-width="2.6" stroke-miterlimit="10"/>
<path d="M514.1 490.6C535.3 490.4 552.7 477.4 552.8 462.8C552.8 459.8 552.1 457 550.9 454.4L550.3 454.1C541.7 448.1 536.4 440.2 536.4 431.4C536.4 413 559.6 398.1 588.3 398.1C617 398.1 640.2 413 640.2 431.4C640.2 445.7 626.1 458 606.3 462.7V462.9L610.7 470.1L609.9 504.9" stroke="#001574" stroke-width="2.6" stroke-miterlimit="10"/>
<path d="M617.8 430.2C617.8 440.6 604.6 449.1 588.4 449.1C572.1 449.1 559 440.6 559 430.2C559 419.8 572.2 411.3 588.4 411.3C604.7 411.3 617.8 419.7 617.8 430.2Z" stroke="#001574" stroke-width="2.6" stroke-miterlimit="10"/>
<path d="M610.7 470L428.5 549.2L420.1 542.6" stroke="#001574" stroke-width="2.6" stroke-miterlimit="10"/>
<path d="M638.7 389.1L620.7 400.6C620.7 400.6 618.9 402 619 404.1L619.3 404.7C632 410.8 640.2 420.5 640.2 431.4C640.2 445.7 626.1 458 606.3 462.7V462.9L610.7 470.1L609.9 504.9" stroke="#001574" stroke-width="2.6" stroke-miterlimit="10" stroke-linecap="round" stroke-linejoin="round"/>
<path d="M536.5 433.8L535 448.2" stroke="#001574" stroke-width="2.6" stroke-miterlimit="10"/>
<path d="M479.5 482.1C481 485.8 484.1 489.2 487 490.9" stroke="#001574" stroke-width="2.6" stroke-miterlimit="10" stroke-linecap="round" stroke-linejoin="round"/>
<path d="M532.2 477.4C532.2 477.4 528.6 441.1 498.8 446.3C486.5 448.4 480.3 456.6 478.8 466" stroke="#001574" stroke-width="2.6" stroke-miterlimit="10" stroke-linecap="round" stroke-linejoin="round"/>
<path d="M478.3 456.6L479.8 490.6" stroke="#001574" stroke-width="2.6" stroke-miterlimit="10"/>
<path d="M572.4 399.2L565.7 393.7" stroke="#001574" stroke-width="2.6" stroke-miterlimit="10" stroke-linecap="round" stroke-linejoin="round"/>
<path d="M477.7 459L474.1 460.9L468.9 458L463.7 461.2L457 460L454.2 463.5L448.4 462.7L444.8 466.8L438 467.5L436.3 471.8L429.8 473.4L429.2 477.8H426.7L425.7 479.2L423.2 478.9L421.5 480.5L419.2 480.1L417.8 481.5L415 481.2L414.1 482.6L411.2 482.5L410.2 483.9L407.4 483.8L406.4 485L403.6 484.8L402.7 486.2L399.9 486.1L398.8 487.4H396L395.1 488.6L392.3 488.3L391.3 489.7L388.5 489.6L387.4 490.9H384.6L383.7 492.1L380.8 492L379.7 493.4L377 493.3L374.1 487.9" stroke="#001574" stroke-width="2.6" stroke-miterlimit="10"/>
<path d="M638.3 422.4L668.8 413.5L671.8 447.9L634.9 459.4" stroke="#001574" stroke-width="2.6" stroke-miterlimit="10"/>
<path d="M695.9 451.8V498" stroke="#001574" stroke-width="2.6" stroke-miterlimit="10"/>
<path d="M709.4 448.4V494.4" stroke="#001574" stroke-width="2.6" stroke-miterlimit="10"/>
<path d="M723.2 455.3V488.8" stroke="#001574" stroke-width="2.6" stroke-miterlimit="10"/>
<path d="M737 461.2V483.4" stroke="#001574" stroke-width="2.6" stroke-miterlimit="10"/>
</svg>
