<svg width="29" height="25" viewBox="0 0 29 25" fill="none" xmlns="http://www.w3.org/2000/svg">
<path d="M7 23.6617C7 24.214 7.44772 24.6617 8 24.6617C8.55228 24.6617 9 24.214 9 23.6617L7 23.6617ZM8.70711 4.95464C8.31658 4.56411 7.68342 4.56411 7.29289 4.95464L0.928932 11.3186C0.538407 11.7091 0.538407 12.3423 0.928932 12.7328C1.31946 13.1233 1.95262 13.1233 2.34315 12.7328L8 7.07596L13.6569 12.7328C14.0474 13.1233 14.6805 13.1233 15.0711 12.7328C15.4616 12.3423 15.4616 11.7091 15.0711 11.3186L8.70711 4.95464ZM9 23.6617L9 5.66174L7 5.66174L7 23.6617L9 23.6617Z" fill="#001A72"/>
<path d="M20 19.6617C20 20.214 20.4477 20.6617 21 20.6617C21.5523 20.6617 22 20.214 22 19.6617L20 19.6617ZM21.7071 0.954637C21.3166 0.564112 20.6834 0.564112 20.2929 0.954638L13.9289 7.3186C13.5384 7.70912 13.5384 8.34229 13.9289 8.73281C14.3195 9.12334 14.9526 9.12334 15.3431 8.73281L21 3.07596L26.6569 8.73281C27.0474 9.12334 27.6805 9.12334 28.0711 8.73281C28.4616 8.34229 28.4616 7.70912 28.0711 7.3186L21.7071 0.954637ZM22 19.6617L22 1.66174L20 1.66174L20 19.6617L22 19.6617Z" fill="#001A72"/>
</svg>
